<?xml version="1.0" standalone="no"?>
<!DOCTYPE svg PUBLIC "-//W3C//DTD SVG 1.1//EN" "http://www.w3.org/Graphics/SVG/1.1/DTD/svg11.dtd" >
<svg>
<metadata>
Created by FontForge 20120731 at Thu Jun 25 21:30:31 2015
 By root
Generated by Fontographer 3.5
</metadata>
<defs>
<font id="VnBahamasBHBold" horiz-adv-x="1252" >
  <font-face 
    font-family=".VnBahamasBH"
    font-weight="700"
    font-stretch="normal"
    units-per-em="2048"
    panose-1="2 11 -30 0 0 0 0 0 0 0"
    ascent="1638"
    descent="-410"
    x-height="1436"
    cap-height="1436"
    bbox="-140 -542 2048 2459"
    underline-thickness="25"
    underline-position="-38"
    unicode-range="U+0020-2219"
  />
<missing-glyph horiz-adv-x="1536" 
d="M256 0v1280h1024v-1280h-1024zM1248 32v1216h-960v-1216h960z" />
    <glyph glyph-name=".notdef" horiz-adv-x="1536" 
d="M256 0v1280h1024v-1280h-1024zM1248 32v1216h-960v-1216h960z" />
    <glyph glyph-name=".null" horiz-adv-x="0" 
 />
    <glyph glyph-name="nonmarkingreturn" horiz-adv-x="567" 
 />
    <glyph glyph-name="space" unicode=" " horiz-adv-x="567" 
 />
    <glyph glyph-name="exclam" unicode="!" horiz-adv-x="680" 
d="M533 1436l-29 -983h-328l-28 983h385zM348 391q63 0 107 -29t69 -77.5t25 -104.5q0 -53 -25 -99t-75.5 -76t-120.5 -30q-90 0 -144.5 62.5t-54.5 142.5q0 85 60 150q57 61 159 61z" />
    <glyph glyph-name="quotedbl" unicode="&#x22;" horiz-adv-x="680" 
d="M281 1436v-551h-244v551h244zM656 1436v-551h-248v551h248z" />
    <glyph glyph-name="numbersign" unicode="#" horiz-adv-x="1141" 
d="M576 1436l-51 -404h184l55 404h205l-53 -404h155l-6 -192h-176l-33 -244h156l-12 -192h-176l-52 -404h-209l58 404h-185l-55 -404h-209l60 404h-176l8 192h192l37 244h-176l8 192h191l57 404h203zM465 596h182l33 244h-184z" />
    <glyph glyph-name="dollar" unicode="$" horiz-adv-x="1141" 
d="M185 469h299q145 0 145 56q0 23 -21 52.5t-50 55.5q-29 28 -62 53l-68 54l-78 60q-46 36 -87 77.5t-68 92.5q-14 26 -22.5 53t-8.5 52q0 79 33.5 150.5t100 120t163.5 59.5v203h203v-197h221v-274h-313q-74 0 -80 -45q5 -44 80 -101l130 -90q84 -57 140.5 -113.5
t93.5 -132t37 -167.5q0 -27 -10.5 -58.5t-28.5 -64.5q-33 -63 -102.5 -112.5t-167.5 -63.5v-257h-203v253h-276v284z" />
    <glyph glyph-name="percent" unicode="%" horiz-adv-x="1821" 
d="M432 1432q96 0 180.5 -46.5t133.5 -122.5q26 -39 40.5 -79t14.5 -80q0 -99 -37.5 -185t-114.5 -143q-39 -29 -85.5 -46t-98.5 -17q-119 0 -206.5 49.5t-135.5 128.5q-24 41 -37.5 81t-13.5 81q0 95 44.5 182t129 142t186.5 55zM1364 725q98 0 181.5 -47t133.5 -125
q25 -39 39.5 -80t14.5 -82q0 -97 -37.5 -183t-112.5 -141.5t-186 -66.5q-118 0 -207 50t-134 128q-23 40 -35.5 80.5t-12.5 81.5q0 99 45 187.5t126 141.5q40 27 87 41.5t98 14.5zM449 928q58 0 96.5 48.5t38.5 103.5q0 46 -39 90q-19 22 -45 34.5t-59 12.5q-60 0 -104 -43
t-44 -99q0 -55 43 -103t105 -48l4 3zM1385 215q28 0 51 12.5t43 37.5q37 49 37 104q0 46 -38 89.5t-106 49.5q-57 0 -101 -42q-21 -21 -33.5 -47t-12.5 -54q0 -57 43 -104.5t109 -47.5l4 1zM1465 1436l-910 -1436h-215l903 1436h222z" />
    <glyph glyph-name="ampersand" unicode="&#x26;" horiz-adv-x="1592" 
d="M1112 1436v-303h-432l412 -524v47q0 136 -101 252l246 233q211 -226 211 -465q0 -182 -121 -348l250 -311h-440l-62 75q-61 -49 -163.5 -81t-210.5 -32q-249 0 -408 150q-93 77 -141 186q-23 54 -37 113t-14 117q0 136 66.5 262.5t180.5 200.5q-48 43 -74 93.5t-26 107.5
q0 48 21 88.5t61 73.5q80 65 229 65h553zM553 760q-48 -41 -74 -92t-26 -113q0 -101 77 -175q39 -38 84.5 -57.5t98.5 -19.5q43 0 84 15.5t76 42.5z" />
    <glyph glyph-name="quotesingle" unicode="'" horiz-adv-x="457" 
d="M396 1436l-99 -467h-209l41 467h267z" />
    <glyph glyph-name="parenleft" unicode="(" horiz-adv-x="680" 
d="M684 1293q-83 -75 -147 -157.5t-107 -169.5t-70 -190q-14 -54 -23 -110.5t-9 -112.5l-1 -30l-1 -29q0 -171 43 -306.5t124 -250.5q77 -109 204 -230l-172 -172q-117 102 -203.5 215.5t-145.5 238.5q-55 119 -84.5 247t-29.5 260l1 26l1 27q0 67 11 138q7 48 26 126
q29 116 83 224t141 217q84 103 204 211z" />
    <glyph glyph-name="parenright" unicode=")" horiz-adv-x="680" 
d="M4 1288l156 177q117 -105 202 -211.5t139.5 -213.5t84.5 -230q17 -74 26 -133t9 -128l2 -65q0 -260 -116 -507t-343 -442l-172 168q63 59 111 114t89 113q81 114 124 252q21 70 32 146t11 162l-1 29l-1 30q0 111 -26.5 214t-73.5 196q-87 175 -253 329z" />
    <glyph glyph-name="asterisk" unicode="*" horiz-adv-x="908" 
d="M568 1436l-52 -252l197 176l115 -207l-244 -78l244 -79l-111 -203l-192 180l47 -260h-228l47 260l-190 -180l-117 203l244 79l-244 78l117 207l199 -180l-52 256h220z" />
    <glyph glyph-name="plus" unicode="+" horiz-adv-x="1229" 
d="M744 983v-403h389v-207h-389v-373h-228v373h-385v207h385v403h228z" />
    <glyph glyph-name="comma" unicode="," horiz-adv-x="568" 
d="M479 303l-210 -602h-248l110 602h348z" />
    <glyph glyph-name="hyphen" unicode="-" horiz-adv-x="680" 
d="M600 365h-516v272h516v-272z" />
    <glyph glyph-name="period" unicode="." horiz-adv-x="568" 
d="M281 396q93 0 153 -60q31 -32 46.5 -68.5t15.5 -82.5q0 -47 -25 -95.5t-73.5 -81.5t-112.5 -33q-91 0 -150 68t-59 150q0 74 60.5 138.5t144.5 64.5z" />
    <glyph glyph-name="slash" unicode="/" horiz-adv-x="568" 
d="M643 1460l-475 -1485h-236l472 1485h239z" />
    <glyph glyph-name="zero" unicode="0" horiz-adv-x="1141" 
d="M72 1000q0 130 70 236t189.5 167.5t252.5 61.5q85 0 158.5 -24t131.5 -68q112 -84 156.5 -194t44.5 -198v-497q0 -159 -68 -274.5t-186 -175t-258 -59.5q-159 0 -273.5 78t-168 182t-53.5 189zM416 465q0 -158 160 -158q151 0 151 164v486q0 76 -37.5 128t-117.5 52
q-156 0 -156 -189v-483z" />
    <glyph glyph-name="one" unicode="1" horiz-adv-x="1141" 
d="M756 1436v-1436h-336v1104h-227v332h563z" />
    <glyph glyph-name="two" unicode="2" horiz-adv-x="1141" 
d="M1045 332v-332h-768q-69 0 -132 54q-32 28 -48.5 62t-16.5 77q0 64 35.5 132t103.5 140l377 395q80 80 80 160q0 52 -33 82.5t-84 34.5q-49 0 -92 -37q-22 -19 -34.5 -41.5t-12.5 -50.5q6 -70 72 -135l-232 -230q-82 64 -125 150t-43 194q0 61 16 119t46 114
q61 109 168.5 174.5t249.5 65.5q75 0 136 -19t116 -56q99 -67 145.5 -169.5t46.5 -219.5q0 -83 -24 -157q-12 -35 -29 -64.5t-39 -53.5l-369 -389h490z" />
    <glyph glyph-name="three" unicode="3" horiz-adv-x="1141" 
d="M117 1436h551q143 0 220 -56t77 -167q0 -85 -60.5 -156.5t-195.5 -200.5q184 -34 251.5 -156.5t67.5 -287.5q0 -57 -16 -107.5t-48 -101.5q-57 -92 -171.5 -147.5t-272.5 -55.5h-444v332h461q72 0 111.5 36.5t39.5 106.5q0 57 -35 95.5t-98 38.5h-295v206l328 297h-471
v324z" />
    <glyph glyph-name="four" unicode="4" horiz-adv-x="1141" 
d="M932 1465v-848h160v-332h-160v-285h-315v285h-394q-76 0 -140 65q-33 34 -49.5 73.5t-16.5 88.5q0 44 12 83.5t35 80.5l424 748h336l-459 -807h252v303z" />
    <glyph glyph-name="five" unicode="5" horiz-adv-x="1141" 
d="M932 1436v-324h-453v-147h93q129 0 239 -55t176 -160t66 -246q0 -97 -27.5 -185t-87.5 -161t-154.5 -115.5t-220.5 -42.5h-454v344h428q80 0 126 39t46 92q0 64 -51 109t-142 45h-381v807h797z" />
    <glyph glyph-name="six" unicode="6" horiz-adv-x="1141" 
d="M500 1436h389l-453 -844q-28 -51 -36 -123q0 -67 49 -109q25 -21 52.5 -32.5t57.5 -11.5q71 9 118.5 53.5t47.5 114.5q0 71 -45.5 123.5t-120.5 52.5l181 321q122 -47 194 -127t102 -174q15 -48 22 -92.5t7 -95.5q0 -135 -60.5 -255t-173.5 -193t-255 -73q-88 0 -159 18
t-133 54q-114 68 -169 176.5t-55 233.5q0 78 19 152.5t56 150.5z" />
    <glyph glyph-name="seven" unicode="7" horiz-adv-x="1141" 
d="M129 1436h572q315 0 315 -236q0 -63 -25 -139l-331 -1061h-383l387 1104h-535v332z" />
    <glyph glyph-name="eight" unicode="8" horiz-adv-x="1141" 
d="M256 781q-70 43 -109 117q-21 40 -31.5 78.5t-10.5 80.5q0 51 14 99t41 97q54 92 157.5 149.5t245.5 57.5q113 0 201 -32t146.5 -89.5t88 -128.5t29.5 -145q0 -87 -38 -163.5t-109 -120.5q100 -57 149.5 -146.5t49.5 -193.5q0 -116 -62 -223.5t-179.5 -175t-270.5 -67.5
q-117 0 -213.5 40.5t-162.5 105.5t-100 145q-19 44 -27.5 82.5t-8.5 83.5q0 67 24 133.5t67 120.5t109 95zM713 1037q0 72 -47.5 105.5t-102.5 33.5q-49 0 -94 -42q-41 -39 -41 -93q0 -67 39 -108q20 -20 45.5 -32t55.5 -12q57 0 101 40.5t44 107.5zM408 469q0 -34 12 -64.5
t34 -56.5q44 -49 114 -49q57 0 110 40q28 21 42.5 52t14.5 74q0 46 -19.5 85t-58.5 63t-89 24q-71 0 -115.5 -51.5t-44.5 -116.5z" />
    <glyph glyph-name="nine" unicode="9" horiz-adv-x="1141" 
d="M633 0h-389l461 865q26 57 26 100q0 68 -48.5 109.5t-114.5 41.5q-70 0 -116 -50q-22 -25 -35 -55.5t-13 -66.5q0 -30 11.5 -57t35.5 -53q43 -48 121 -58l-176 -319q-89 27 -165 99t-123.5 177.5t-47.5 214.5q0 98 32.5 184.5t96.5 168.5q42 53 103 90q33 19 64 32.5
t67.5 22.5t72 14t72.5 5q94 0 182.5 -27.5t156 -80.5t101.5 -124q63 -119 63 -272q0 -149 -63 -260z" />
    <glyph glyph-name="colon" unicode=":" horiz-adv-x="568" 
d="M281 996q85 0 150 -60t65 -147q0 -49 -30 -100t-77 -83q-26 -17 -50.5 -25.5t-53.5 -8.5l-2 3q-58 1 -105 32t-74.5 78t-27.5 100q0 49 25.5 99t72 81t107.5 31zM285 396q55 0 102.5 -28.5t78.5 -76.5q15 -24 24.5 -51.5t9.5 -54.5q0 -49 -29 -99t-79.5 -82.5
t-106.5 -32.5h-4q-52 0 -99.5 31.5t-75.5 78.5q-15 27 -22.5 50t-7.5 49q0 50 25 100t73 83t111 33z" />
    <glyph glyph-name="semicolon" unicode=";" horiz-adv-x="568" 
d="M273 996q102 0 162.5 -63t60.5 -140q0 -44 -22.5 -94.5t-67 -84.5t-109.5 -34q-106 0 -163.5 66.5t-57.5 142.5q0 35 21 82.5t65 84.5q23 19 50.5 29.5t60.5 10.5zM475 303l-206 -606h-248l108 606h346z" />
    <glyph glyph-name="less" unicode="&#x3c;" horiz-adv-x="1229" 
d="M1116 789l-692 -289l692 -287v-230l-999 425v184l999 420v-223z" />
    <glyph glyph-name="equal" unicode="=" horiz-adv-x="1229" 
d="M1116 856v-235h-995v235h995zM1116 381v-237h-995v237h995z" />
    <glyph glyph-name="greater" unicode="&#x3e;" horiz-adv-x="1229" 
d="M117 789v223l999 -420v-184l-999 -425v230l692 287z" />
    <glyph glyph-name="question" unicode="?" horiz-adv-x="1141" 
d="M555 391q52 0 100 -28q44 -24 73 -69q16 -26 24 -48t8 -49q0 -61 -25.5 -111t-74.5 -80.5t-115 -30.5q-56 0 -102 31.5t-72.5 82.5t-26.5 108q0 25 7 46t22 47q26 44 73.5 72.5t108.5 28.5zM408 1012l-332 96q33 116 106.5 195t169.5 116t197 37q125 0 236.5 -58
t179 -162t67.5 -232q0 -100 -41.5 -190.5t-115.5 -153t-166 -80.5v-123h-328v408q19 0 64 -9q90 0 154.5 38t64.5 110q0 54 -34.5 91.5t-92.5 37.5q-52 0 -87.5 -30.5t-41.5 -90.5z" />
    <glyph glyph-name="at" unicode="@" horiz-adv-x="1641" 
d="M1456 277q-114 -150 -272.5 -226t-327.5 -76q-145 0 -282 54q-68 26 -129.5 63.5t-117.5 88.5q-109 99 -174 236q-32 68 -48.5 142.5t-16.5 153.5q0 46 7 93q3 23 18 97q30 121 100 223.5t171 177.5t218.5 113.5t241.5 38.5q134 0 259 -42t226 -121.5t160.5 -192
t59.5 -248.5q0 -96 -32.5 -188t-90 -165t-139.5 -127.5t-175 -78.5q-19 0 -29 -1t-42 -7q-52 5 -78.5 26t-26.5 76q-44 -50 -97 -76t-118 -26q-80 0 -153 52t-118 139q-23 45 -34.5 88.5t-11.5 91.5q21 144 74.5 242t164.5 159q79 35 162 35q181 0 248 -115l18 94h189
l-88 -454l-13 -92q0 -31 33 -37l12 4q51 8 88.5 50t56.5 106t19 141q0 87 -27 174.5t-86 157t-147 104.5q-53 21 -116.5 32t-139.5 11q-57 0 -106 -7t-102 -24q-97 -30 -156 -84q-87 -79 -128 -176t-53 -221q0 -134 41 -251t123.5 -199t200.5 -117q55 -13 106 -21t103 -8
q119 0 213 30.5t162 86.5h200zM748 512q12 0 23 -2.5t22 -5.5q40 0 74.5 16.5t65.5 49.5q58 62 58 147q0 70 -45 115t-110 45q-84 0 -134 -59t-61 -146q0 -56 30 -103q27 -43 77 -57z" />
    <glyph glyph-name="A" unicode="A" 
d="M1129 957v-957h-357v500h-223v324h223v129q0 34 -4 57t-16 46q-20 41 -52.5 61t-70.5 20q-150 0 -150 -209v-928h-354v953q0 123 41.5 222.5t113 166t163 101t186.5 34.5q97 0 185.5 -33.5t159.5 -99t113 -164.5t42 -223z" />
    <glyph glyph-name="B" unicode="B" 
d="M479 0h-358v948q0 166 67 279q33 56 79 100t104 73t124 44.5t138 15.5q148 0 253.5 -58.5t159.5 -154t54 -202.5q0 -82 -35 -154t-100 -119q207 -116 207 -348q0 -108 -51.5 -205.5t-141 -158t-198.5 -60.5h-228v332q114 0 177 26t63 107q0 127 -240 127v297
q86 0 130 32.5t44 82.5q0 51 -34.5 88t-83.5 37t-89.5 -30.5t-40.5 -82.5v-1016z" />
    <glyph glyph-name="C" unicode="C" horiz-adv-x="1024" 
d="M948 1092h-159q-89 0 -168 -39.5t-129.5 -120.5t-50.5 -192q0 -212 105 -304t263 -92h139v-344h-200q-135 0 -257.5 48t-218.5 143t-150 234.5t-54 318.5q0 159 65 295q62 131 159 218.5t212 133t223 45.5h221v-344z" />
    <glyph glyph-name="D" unicode="D" horiz-adv-x="1368" 
d="M475 1092v-1092h-354v1436h391q195 0 343.5 -64.5t242 -171.5t138 -235.5t44.5 -255.5q0 -143 -46.5 -269t-139 -225t-229.5 -157t-306 -58v344q127 14 205.5 72t115 139t36.5 162q0 181 -124 276q-61 47 -141.5 73t-175.5 26z" />
    <glyph glyph-name="E" unicode="E" horiz-adv-x="1024" 
d="M928 1436v-332q-168 0 -253.5 -18t-132.5 -65t-93 -148h479v-314h-479q45 -100 92.5 -146t133.5 -63.5t253 -17.5v-332h-231q-113 0 -226.5 50t-201.5 143q-45 47 -81 102t-63.5 122t-42 138.5t-14.5 149.5q0 139 44.5 272t127 236t196 163t244.5 60h248z" />
    <glyph glyph-name="F" unicode="F" horiz-adv-x="908" 
d="M860 1436v-344h-280q-81 0 -102 -33.5t-21 -93.5v-121h403v-332h-403v-512h-356v953q0 149 46 255.5t148.5 167t263.5 60.5h301z" />
    <glyph glyph-name="G" unicode="G" horiz-adv-x="1592" 
d="M1145 983q-84 81 -152 107t-165 26q-110 0 -196.5 -51t-138.5 -143q-24 -44 -38 -95.5t-14 -105.5q0 -53 12 -99t38 -98q45 -90 125 -145q41 -28 89 -43.5t100 -15.5q106 0 198.5 62.5t137.5 180.5h-360v326h747q6 -53 6 -108q0 -131 -31 -252t-97.5 -227t-173.5 -186
q-103 -76 -249 -116q-98 -25 -194 -25q-157 0 -290.5 62t-232.5 170.5t-150.5 239.5t-51.5 266q0 29 1 42.5t7 55.5q26 168 96 291.5t171 201t220 115t250 37.5q112 0 220.5 -27t203 -78t160.5 -118z" />
    <glyph glyph-name="H" unicode="H" 
d="M484 1436v-504h284v504h357v-1436h-357v588h-284v-588h-355v1436h355z" />
    <glyph glyph-name="I" unicode="I" horiz-adv-x="568" 
d="M465 1436v-1436h-356v1436h356z" />
    <glyph glyph-name="J" unicode="J" horiz-adv-x="797" 
d="M684 1436v-911q0 -161 -33 -264t-103 -160t-181 -80q-53 -11 -122.5 -17t-154.5 -6l-44 1l-46 1v344q59 0 80 -4q48 0 88.5 3.5t66.5 9.5q47 10 68 44t21 111v928h360z" />
    <glyph glyph-name="K" unicode="K" 
d="M117 0v1436l303 4v-547q47 0 84.5 12t81 60.5t86.5 150.5l137 320h340l-108 -256q-51 -115 -124 -225.5t-128 -130.5q111 -21 201 -77.5t90 -174.5v-572h-320v496q0 69 -42.5 93t-121.5 24h-58q-26 0 -54 -4l-48 4v-613h-319z" />
    <glyph glyph-name="L" unicode="L" horiz-adv-x="908" 
d="M889 0h-330q-251 0 -352.5 128t-101.5 296v1012h356v-932q0 -64 12.5 -96t55.5 -48q22 -8 53 -12t78 -4h229v-344z" />
    <glyph glyph-name="M" unicode="M" horiz-adv-x="1592" 
d="M377 4h-340l115 1151q5 53 12.5 93t19.5 73q23 64 78.5 101.5t157.5 37.5q137 0 192 -73.5t72 -190.5l109 -688h8l107 696q19 140 91 198t185 58q119 0 180 -66t76 -206l117 -1188h-336l-66 1159l-182 -991q-9 -66 -49.5 -129.5t-118.5 -63.5q-71 0 -120 44.5t-60 109.5
l-189 1024z" />
    <glyph glyph-name="N" unicode="N" horiz-adv-x="1368" 
d="M471 0h-354v1268q0 59 28.5 106t76 73t102.5 26q75 0 146 -48.5t118 -144.5l309 -612v768h355v-1247q0 -90 -54 -156t-133 -66q-131 0 -233 193l-361 688v-848z" />
    <glyph glyph-name="O" unicode="O" horiz-adv-x="1592" 
d="M797 1096q-108 0 -194 -55q-80 -51 -124 -132q-22 -42 -34.5 -84t-12.5 -85q0 -107 41.5 -197.5t126.5 -146.5t197 -56q80 0 149 33q34 16 63.5 38.5t54.5 50.5q50 56 77 125t27 140q0 92 -50.5 178t-136 138.5t-184.5 52.5zM797 1460q155 0 286 -59q66 -30 124.5 -70.5
t107.5 -91.5q98 -103 153 -230q29 -66 44.5 -130.5t15.5 -130.5q0 -142 -51.5 -281.5t-146 -250t-226.5 -176t-289 -65.5h-14q-113 0 -210.5 29t-185.5 86q-165 108 -251 288t-86 398q0 55 14 111t42 122q50 117 143.5 220t228.5 166q68 32 143.5 48.5t157.5 16.5z" />
    <glyph glyph-name="P" unicode="P" horiz-adv-x="1141" 
d="M461 0h-360v899q0 208 72 331.5t185.5 174.5t237.5 51q147 0 241 -47.5t151 -117.5q28 -34 49 -71t34 -78q25 -83 25 -165q0 -109 -32.5 -203t-82.5 -145q-70 -70 -151 -114q-42 -22 -98 -34t-132 -12l-41 4l-43 2v330q111 0 171.5 43.5t60.5 112.5q0 68 -47.5 120
t-116.5 52q-52 0 -87.5 -41t-35.5 -123v-969z" />
    <glyph glyph-name="Q" unicode="Q" horiz-adv-x="1592" 
d="M568 420v-407q-164 54 -277 166t-166 251q-28 72 -42.5 143t-14.5 144q0 64 11.5 124.5t33.5 127.5q47 150 154 261t250.5 170.5t283.5 59.5q56 0 119 -8q106 -20 212 -75.5t195 -147.5t144 -224t55 -298q0 -46 -6.5 -114.5t-46.5 -163.5q-19 -43 -46 -89t-61 -89
q-68 -86 -169 -154t-228 -97v-185h-328v740h328v-170q92 44 141 133t49 195q0 101 -47.5 188t-130.5 139q-42 26 -87 39t-97 13q-100 0 -184.5 -53.5t-132.5 -141.5q-25 -46 -38.5 -92.5t-13.5 -95.5q0 -44 9.5 -84t29.5 -84q35 -77 101 -121z" />
    <glyph glyph-name="R" unicode="R" 
d="M860 735q167 -28 216 -93.5t49 -141.5v-500h-361v441q0 48 -38 77q-20 16 -65 25.5t-112 9.5v320q97 0 141.5 36.5t44.5 94.5q0 53 -35.5 89t-86.5 36q-56 0 -94 -51q-35 -52 -35 -105v-973h-371v916q0 164 54 286t170.5 190t295.5 68q123 0 224.5 -44t164 -126.5
t74.5 -201.5l4 -62q0 -255 -240 -291z" />
    <glyph glyph-name="S" unicode="S" horiz-adv-x="1024" 
d="M869 1436v-332h-353q-85 0 -92 -59q7 -54 76 -97q137 -86 219 -147.5t135 -120t80 -125.5t27 -143q0 -61 -13 -123q-30 -133 -149 -211t-320 -78h-407v332h356q74 0 111 22t37 54q0 49 -43 80q-22 18 -67 52.5t-105 79.5q-116 85 -174.5 140.5t-93.5 124t-35 162.5
q0 32 6 74q13 87 68 159t143.5 114t189.5 42h404z" />
    <glyph glyph-name="T" unicode="T" horiz-adv-x="908" 
d="M17 1436h880v-344h-264v-1092h-356v1092h-260v344z" />
    <glyph glyph-name="U" unicode="U" 
d="M461 1436v-967q0 -67 50 -109q27 -21 56 -32.5t62 -11.5q65 0 116 43q48 39 48 112v965h356v-936q0 -93 -28 -182.5t-89.5 -166t-166.5 -126.5q-52 -24 -113 -37t-131 -13q-170 0 -288 75.5t-173 195.5t-55 258v932h356z" />
    <glyph glyph-name="V" unicode="V" horiz-adv-x="1141" 
d="M365 1436l194 -1016l226 1016h374l-290 -1139q-42 -166 -108 -243q-33 -38 -83 -58.5t-115 -20.5q-127 0 -198 69t-113 241l-269 1151h382z" />
    <glyph glyph-name="W" unicode="W" horiz-adv-x="1821" 
d="M488 1436v-957q0 -159 116 -159q127 0 127 159v957h361v-957q0 -98 37.5 -128.5t95.5 -30.5q34 0 72.5 31.5t38.5 117.5v967h356v-1051q0 -117 -64.5 -210.5t-173 -146.5t-225.5 -53q-192 0 -317 142q-118 -142 -324 -142q-116 0 -221.5 52.5t-170.5 148.5t-65 220v1040
h357z" />
    <glyph glyph-name="X" unicode="X" horiz-adv-x="1141" 
d="M37 1436q192 0 323 -63q128 -60 216 -218q74 149 200.5 215t331.5 66v-332q-58 0 -105.5 -16t-92.5 -47q-81 -54 -123 -139q-21 -44 -32 -87.5t-11 -93.5q0 -97 45 -188t126 -147q42 -28 89.5 -43t103.5 -15v-328q-93 0 -184.5 15t-190 78t-157.5 192q-58 -113 -149 -178
q-87 -62 -187.5 -84.5t-202.5 -22.5v332q110 0 190 56t120 143.5t40 189.5t-39 187t-117 138q-39 27 -89 42.5t-105 15.5v332z" />
    <glyph glyph-name="Y" unicode="Y" horiz-adv-x="1141" 
d="M461 1436v-453q0 -164 107 -164q53 0 82.5 35t29.5 129v453h357v-496q0 -176 -79.5 -281.5t-201.5 -146.5v-512h-356v512q-161 46 -228 164t-67 223v537h356z" />
    <glyph glyph-name="Z" unicode="Z" horiz-adv-x="1141" 
d="M156 1436h696q59 0 105.5 -30.5t71 -81t24.5 -103.5q0 -74 -37 -129l-463 -748h508v-344h-780q-92 0 -149 64q-29 33 -44.5 70t-15.5 81q0 36 11 69t30 60l475 748h-432v344z" />
    <glyph glyph-name="bracketleft" unicode="[" horiz-adv-x="680" 
d="M604 1436v-131h-184v-1621h184v-129h-448v1881h448z" />
    <glyph glyph-name="backslash" unicode="\" horiz-adv-x="568" 
d="M97 1460l612 -1485h-238l-611 1485h237z" />
    <glyph glyph-name="bracketright" unicode="]" horiz-adv-x="680" 
d="M80 1436h445v-1881h-449l4 129h184v1621h-184v131z" />
    <glyph glyph-name="asciicircum" unicode="^" horiz-adv-x="1229" 
d="M725 1436l359 -748h-244l-223 512l-230 -512h-235l356 748h217z" />
    <glyph glyph-name="underscore" unicode="_" horiz-adv-x="1024" 
d="M1024 -256h-1024v104h1024v-104z" />
    <glyph glyph-name="grave" unicode="`" horiz-adv-x="568" 
d="M293 1448l203 -299h-281l-350 299h428z" />
    <glyph glyph-name="a" unicode="a" 
d="M1129 957v-957h-357v500h-223v324h223v129q0 34 -4 57t-16 46q-20 41 -52.5 61t-70.5 20q-150 0 -150 -209v-928h-354v953q0 123 41.5 222.5t113 166t163 101t186.5 34.5q97 0 185.5 -33.5t159.5 -99t113 -164.5t42 -223z" />
    <glyph glyph-name="b" unicode="b" 
d="M479 0h-358v948q0 166 67 279q33 56 79 100t104 73t124 44.5t138 15.5q148 0 253.5 -58.5t159.5 -154t54 -202.5q0 -82 -35 -154t-100 -119q207 -116 207 -348q0 -108 -51.5 -205.5t-141 -158t-198.5 -60.5h-228v332q114 0 177 26t63 107q0 127 -240 127v297
q86 0 130 32.5t44 82.5q0 51 -34.5 88t-83.5 37t-89.5 -30.5t-40.5 -82.5v-1016z" />
    <glyph glyph-name="c" unicode="c" horiz-adv-x="1024" 
d="M948 1092h-159q-89 0 -168 -39.5t-129.5 -120.5t-50.5 -192q0 -212 105 -304t263 -92h139v-344h-200q-135 0 -257.5 48t-218.5 143t-150 234.5t-54 318.5q0 159 65 295q62 131 159 218.5t212 133t223 45.5h221v-344z" />
    <glyph glyph-name="d" unicode="d" horiz-adv-x="1368" 
d="M475 1092v-1092h-354v1436h391q195 0 343.5 -64.5t242 -171.5t138 -235.5t44.5 -255.5q0 -143 -46.5 -269t-139 -225t-229.5 -157t-306 -58v344q127 14 205.5 72t115 139t36.5 162q0 181 -124 276q-61 47 -141.5 73t-175.5 26z" />
    <glyph glyph-name="e" unicode="e" horiz-adv-x="1024" 
d="M928 1436v-332q-168 0 -253.5 -18t-132.5 -65t-93 -148h479v-314h-479q45 -100 92.5 -146t133.5 -63.5t253 -17.5v-332h-231q-113 0 -226.5 50t-201.5 143q-45 47 -81 102t-63.5 122t-42 138.5t-14.5 149.5q0 139 44.5 272t127 236t196 163t244.5 60h248z" />
    <glyph glyph-name="f" unicode="f" horiz-adv-x="908" 
d="M860 1436v-344h-280q-81 0 -102 -33.5t-21 -93.5v-121h403v-332h-403v-512h-356v953q0 149 46 255.5t148.5 167t263.5 60.5h301z" />
    <glyph glyph-name="g" unicode="g" horiz-adv-x="1592" 
d="M1145 983q-84 81 -152 107t-165 26q-110 0 -196.5 -51t-138.5 -143q-24 -44 -38 -95.5t-14 -105.5q0 -53 12 -99t38 -98q45 -90 125 -145q41 -28 89 -43.5t100 -15.5q106 0 198.5 62.5t137.5 180.5h-360v326h747q6 -53 6 -108q0 -131 -31 -252t-97.5 -227t-173.5 -186
q-103 -76 -249 -116q-98 -25 -194 -25q-157 0 -290.5 62t-232.5 170.5t-150.5 239.5t-51.5 266q0 29 1 42.5t7 55.5q26 168 96 291.5t171 201t220 115t250 37.5q112 0 220.5 -27t203 -78t160.5 -118z" />
    <glyph glyph-name="h" unicode="h" 
d="M484 1436v-504h284v504h357v-1436h-357v588h-284v-588h-355v1436h355z" />
    <glyph glyph-name="i" unicode="i" horiz-adv-x="568" 
d="M465 1436v-1436h-356v1436h356z" />
    <glyph glyph-name="j" unicode="j" horiz-adv-x="797" 
d="M684 1436v-911q0 -161 -33 -264t-103 -160t-181 -80q-53 -11 -122.5 -17t-154.5 -6l-44 1l-46 1v344q59 0 80 -4q48 0 88.5 3.5t66.5 9.5q47 10 68 44t21 111v928h360z" />
    <glyph glyph-name="k" unicode="k" 
d="M117 0v1436l303 4v-547q47 0 84.5 12t81 60.5t86.5 150.5l137 320h340l-108 -256q-51 -115 -124 -225.5t-128 -130.5q111 -21 201 -77.5t90 -174.5v-572h-320v496q0 69 -42.5 93t-121.5 24h-58q-26 0 -54 -4l-48 4v-613h-319z" />
    <glyph glyph-name="l" unicode="l" horiz-adv-x="908" 
d="M889 0h-330q-251 0 -352.5 128t-101.5 296v1012h356v-932q0 -64 12.5 -96t55.5 -48q22 -8 53 -12t78 -4h229v-344z" />
    <glyph glyph-name="m" unicode="m" horiz-adv-x="1592" 
d="M377 4h-340l115 1151q5 53 12.5 93t19.5 73q23 64 78.5 101.5t157.5 37.5q137 0 192 -73.5t72 -190.5l109 -688h8l107 696q19 140 91 198t185 58q119 0 180 -66t76 -206l117 -1188h-336l-66 1159l-182 -991q-9 -66 -49.5 -129.5t-118.5 -63.5q-71 0 -120 44.5t-60 109.5
l-189 1024z" />
    <glyph glyph-name="n" unicode="n" horiz-adv-x="1368" 
d="M471 0h-354v1268q0 59 28.5 106t76 73t102.5 26q75 0 146 -48.5t118 -144.5l309 -612v768h355v-1247q0 -90 -54 -156t-133 -66q-131 0 -233 193l-361 688v-848z" />
    <glyph glyph-name="o" unicode="o" horiz-adv-x="1592" 
d="M797 1096q-108 0 -194 -55q-80 -51 -124 -132q-22 -42 -34.5 -84t-12.5 -85q0 -107 41.5 -197.5t126.5 -146.5t197 -56q80 0 149 33q34 16 63.5 38.5t54.5 50.5q50 56 77 125t27 140q0 92 -50.5 178t-136 138.5t-184.5 52.5zM797 1460q155 0 286 -59q66 -30 124.5 -70.5
t107.5 -91.5q98 -103 153 -230q29 -66 44.5 -130.5t15.5 -130.5q0 -142 -51.5 -281.5t-146 -250t-226.5 -176t-289 -65.5h-14q-113 0 -210.5 29t-185.5 86q-165 108 -251 288t-86 398q0 55 14 111t42 122q50 117 143.5 220t228.5 166q68 32 143.5 48.5t157.5 16.5z" />
    <glyph glyph-name="p" unicode="p" horiz-adv-x="1141" 
d="M461 0h-360v899q0 208 72 331.5t185.5 174.5t237.5 51q147 0 241 -47.5t151 -117.5q28 -34 49 -71t34 -78q25 -83 25 -165q0 -109 -32.5 -203t-82.5 -145q-70 -70 -151 -114q-42 -22 -98 -34t-132 -12l-41 4l-43 2v330q111 0 171.5 43.5t60.5 112.5q0 68 -47.5 120
t-116.5 52q-52 0 -87.5 -41t-35.5 -123v-969z" />
    <glyph glyph-name="q" unicode="q" horiz-adv-x="1592" 
d="M568 420v-407q-164 54 -277 166t-166 251q-28 72 -42.5 143t-14.5 144q0 64 11.5 124.5t33.5 127.5q47 150 154 261t250.5 170.5t283.5 59.5q56 0 119 -8q106 -20 212 -75.5t195 -147.5t144 -224t55 -298q0 -46 -6.5 -114.5t-46.5 -163.5q-19 -43 -46 -89t-61 -89
q-68 -86 -169 -154t-228 -97v-185h-328v740h328v-170q92 44 141 133t49 195q0 101 -47.5 188t-130.5 139q-42 26 -87 39t-97 13q-100 0 -184.5 -53.5t-132.5 -141.5q-25 -46 -38.5 -92.5t-13.5 -95.5q0 -44 9.5 -84t29.5 -84q35 -77 101 -121z" />
    <glyph glyph-name="r" unicode="r" 
d="M860 735q167 -28 216 -93.5t49 -141.5v-500h-361v441q0 48 -38 77q-20 16 -65 25.5t-112 9.5v320q97 0 141.5 36.5t44.5 94.5q0 53 -35.5 89t-86.5 36q-56 0 -94 -51q-35 -52 -35 -105v-973h-371v916q0 164 54 286t170.5 190t295.5 68q123 0 224.5 -44t164 -126.5
t74.5 -201.5l4 -62q0 -255 -240 -291z" />
    <glyph glyph-name="s" unicode="s" horiz-adv-x="1024" 
d="M869 1436v-332h-353q-85 0 -92 -59q7 -54 76 -97q137 -86 219 -147.5t135 -120t80 -125.5t27 -143q0 -61 -13 -123q-30 -133 -149 -211t-320 -78h-407v332h356q74 0 111 22t37 54q0 49 -43 80q-22 18 -67 52.5t-105 79.5q-116 85 -174.5 140.5t-93.5 124t-35 162.5
q0 32 6 74q13 87 68 159t143.5 114t189.5 42h404z" />
    <glyph glyph-name="t" unicode="t" horiz-adv-x="908" 
d="M17 1436h880v-344h-264v-1092h-356v1092h-260v344z" />
    <glyph glyph-name="u" unicode="u" 
d="M461 1436v-967q0 -67 50 -109q27 -21 56 -32.5t62 -11.5q65 0 116 43q48 39 48 112v965h356v-936q0 -93 -28 -182.5t-89.5 -166t-166.5 -126.5q-52 -24 -113 -37t-131 -13q-170 0 -288 75.5t-173 195.5t-55 258v932h356z" />
    <glyph glyph-name="v" unicode="v" horiz-adv-x="1141" 
d="M365 1436l194 -1016l226 1016h374l-290 -1139q-42 -166 -108 -243q-33 -38 -83 -58.5t-115 -20.5q-127 0 -198 69t-113 241l-269 1151h382z" />
    <glyph glyph-name="w" unicode="w" horiz-adv-x="1821" 
d="M488 1436v-957q0 -159 116 -159q127 0 127 159v957h361v-957q0 -98 37.5 -128.5t95.5 -30.5q34 0 72.5 31.5t38.5 117.5v967h356v-1051q0 -117 -64.5 -210.5t-173 -146.5t-225.5 -53q-192 0 -317 142q-118 -142 -324 -142q-116 0 -221.5 52.5t-170.5 148.5t-65 220v1040
h357z" />
    <glyph glyph-name="x" unicode="x" horiz-adv-x="1141" 
d="M37 1436q192 0 323 -63q128 -60 216 -218q74 149 200.5 215t331.5 66v-332q-58 0 -105.5 -16t-92.5 -47q-81 -54 -123 -139q-21 -44 -32 -87.5t-11 -93.5q0 -97 45 -188t126 -147q42 -28 89.5 -43t103.5 -15v-328q-93 0 -184.5 15t-190 78t-157.5 192q-58 -113 -149 -178
q-87 -62 -187.5 -84.5t-202.5 -22.5v332q110 0 190 56t120 143.5t40 189.5t-39 187t-117 138q-39 27 -89 42.5t-105 15.5v332z" />
    <glyph glyph-name="y" unicode="y" horiz-adv-x="1141" 
d="M461 1436v-453q0 -164 107 -164q53 0 82.5 35t29.5 129v453h357v-496q0 -176 -79.5 -281.5t-201.5 -146.5v-512h-356v512q-161 46 -228 164t-67 223v537h356z" />
    <glyph glyph-name="z" unicode="z" horiz-adv-x="1141" 
d="M156 1436h696q59 0 105.5 -30.5t71 -81t24.5 -103.5q0 -74 -37 -129l-463 -748h508v-344h-780q-92 0 -149 64q-29 33 -44.5 70t-15.5 81q0 36 11 69t30 60l475 748h-432v344z" />
    <glyph glyph-name="braceleft" unicode="{" horiz-adv-x="680" 
d="M672 1309h-109q-70 0 -96 -29t-26 -96v-508q0 -69 -59.5 -113.5t-145.5 -54.5v-8q100 0 152.5 -55.5t52.5 -155.5v-486q0 -119 112 -119h119v-133h-201q-92 0 -159 42t-101.5 110t-34.5 141v416q0 70 -50 107t-151 37v200q201 0 201 123v422q0 112 77 199.5t218 87.5h201
v-127z" />
    <glyph glyph-name="bar" unicode="|" horiz-adv-x="457" 
d="M109 0v1436h239v-1436h-239z" />
    <glyph glyph-name="braceright" unicode="}" horiz-adv-x="680" 
d="M13 1309v127h196q141 0 218 -87q39 -44 58 -92.5t19 -107.5v-422q0 -123 201 -123v-200q-201 0 -201 -144v-416q0 -74 -34 -142t-100 -109.5t-157 -41.5h-200v133h116q115 0 115 119v486q0 100 51 155.5t150 55.5v8q-85 9 -143 54t-58 114v508q0 66 -27.5 95.5
t-99.5 29.5h-104z" />
    <glyph glyph-name="asciitilde" unicode="~" horiz-adv-x="1229" 
d="M1088 492q-62 -89 -121 -134q-29 -22 -60.5 -34t-66.5 -12q-27 0 -49 4.5t-50 15.5q-44 17 -116 53q-30 15 -60.5 28.5t-59.5 24.5q-54 19 -105 19q-131 0 -185 -154l-75 201q99 176 247 176q27 0 54 -4t52.5 -12.5t58 -22t67.5 -29.5q23 -11 64 -29l50 -22
q29 -10 49 -15t46 -5q52 0 99 36q42 32 89 111z" />
    <glyph glyph-name="quoteleft" unicode="&#x2018;" horiz-adv-x="457" 
d="M332 1436l37 -467h-209l-100 467h272z" />
    <glyph glyph-name="quoteright" unicode="&#x2019;" horiz-adv-x="457" 
d="M396 1436l-99 -467h-209l41 467h267z" />
    <glyph glyph-name="quotedblleft" unicode="&#x201c;" horiz-adv-x="908" 
d="M781 1436l38 -467h-206l-101 467h269zM361 1436l39 -467h-207l-101 467h269z" />
    <glyph glyph-name="quotedblright" unicode="&#x201d;" horiz-adv-x="908" 
d="M129 1436h271l-103 -467h-205zM549 1436h266l-98 -467h-209z" />
    <glyph glyph-name="bullet" unicode="&#x2022;" horiz-adv-x="568" 
d="M285 709q56 0 102.5 -27.5t74.5 -72.5q15 -25 22.5 -46.5t7.5 -46.5q0 -90 -49 -155q-25 -33 -62.5 -52.5t-83.5 -19.5q-102 0 -161.5 67t-59.5 156q0 45 25 90t74 76t110 31z" />
    <glyph glyph-name="endash" unicode="&#x2013;" horiz-adv-x="1024" 
d="M1024 387h-1024v222h1024v-222z" />
    <glyph glyph-name="emdash" unicode="&#x2014;" horiz-adv-x="2048" 
d="M2048 387h-2044h-4v222h2044h4v-222z" />
    <glyph glyph-name="tilde" unicode="&#x2dc;" horiz-adv-x="568" 
d="M684 1432q0 -69 -23 -121t-63.5 -86.5t-84.5 -52t-97 -17.5q-37 5 -51.5 8t-48.5 13l-78 30q-69 27 -107 27q-70 0 -88 -84h-160q21 137 88.5 210t168.5 73q45 0 74 -10l106 -38q77 -28 112 -32q60 6 88 80h164z" />
    <glyph glyph-name="nonbreakingspace" unicode="&#xa0;" horiz-adv-x="250" 
 />
    <glyph glyph-name="exclamdown" unicode="&#xa1;" 
d="M1129 957v-957h-357v500h-223v324h223v129q0 34 -4 57t-16 46q-20 41 -52.5 61t-70.5 20q-150 0 -150 -209v-928h-354v953q0 123 41.5 222.5t113 166t163 101t186.5 34.5q97 0 185.5 -33.5t159.5 -99t113 -164.5t42 -223zM257 1845h156q10 -64 62 -98.5t147 -34.5
q193 0 215 133h160q0 -82 -41 -152.5t-127 -113.5q-43 -21 -96 -33t-115 -12q-51 0 -98.5 9t-89.5 26q-82 35 -127.5 104.5t-45.5 171.5z" />
    <glyph glyph-name="cent" unicode="&#xa2;" 
d="M1129 957v-957h-357v500h-223v324h223v129q0 34 -4 57t-16 46q-20 41 -52.5 61t-70.5 20q-150 0 -150 -209v-928h-354v953q0 123 41.5 222.5t113 166t163 101t186.5 34.5q97 0 185.5 -33.5t159.5 -99t113 -164.5t42 -223zM797 1833l252 -305h-309l-111 156l-117 -156
h-299l248 305h336z" />
    <glyph glyph-name="sterling" unicode="&#xa3;" horiz-adv-x="1024" 
d="M928 1436v-332q-168 0 -253.5 -18t-132.5 -65t-93 -148h479v-314h-479q45 -100 92.5 -146t133.5 -63.5t253 -17.5v-332h-231q-113 0 -226.5 50t-201.5 143q-45 47 -81 102t-63.5 122t-42 138.5t-14.5 149.5q0 139 44.5 272t127 236t196 163t244.5 60h248zM785 1833
l252 -305h-310l-110 156l-117 -156h-299l248 305h336z" />
    <glyph glyph-name="currency" unicode="&#xa4;" horiz-adv-x="1592" 
d="M797 1096q-108 0 -194 -55q-80 -51 -124 -132q-22 -42 -34.5 -84t-12.5 -85q0 -107 41.5 -197.5t126.5 -146.5t197 -56q80 0 149 33q34 16 63.5 38.5t54.5 50.5q50 56 77 125t27 140q0 92 -50.5 178t-136 138.5t-184.5 52.5zM797 1460q155 0 286 -59q66 -30 124.5 -70.5
t107.5 -91.5q98 -103 153 -230q29 -66 44.5 -130.5t15.5 -130.5q0 -142 -51.5 -281.5t-146 -250t-226.5 -176t-289 -65.5h-14q-113 0 -210.5 29t-185.5 86q-165 108 -251 288t-86 398q0 55 14 111t42 122q50 117 143.5 220t228.5 166q68 32 143.5 48.5t157.5 16.5zM965 1833
l252 -305h-309l-111 156l-117 -156h-299l248 305h336z" />
    <glyph glyph-name="yen" unicode="&#xa5;" horiz-adv-x="1592" 
d="M797 1096q-108 0 -194 -55q-80 -51 -124 -132q-22 -42 -34.5 -84t-12.5 -85q0 -107 41.5 -197.5t126.5 -146.5t197 -56q80 0 149 33q34 16 63.5 38.5t54.5 50.5q50 56 77 125t27 140q0 92 -50.5 178t-136 138.5t-184.5 52.5zM1326 1227l27 308h267l-90 -473l-88 2l26 -55
q29 -66 44.5 -130.5t15.5 -130.5q0 -142 -51.5 -281.5t-146 -250t-226.5 -176t-289 -65.5h-14q-113 0 -210.5 29t-185.5 86q-165 108 -251 288t-86 398q0 55 14 111t42 122q50 117 143.5 220t228.5 166q68 32 143.5 48.5t157.5 16.5q155 0 286 -59q66 -30 124.5 -70.5
t107.5 -91.5z" />
    <glyph glyph-name="brokenbar" unicode="&#xa6;" horiz-adv-x="1368" 
d="M1149 1032v-532q0 -93 -28 -182.5t-89.5 -166t-166.5 -126.5q-52 -24 -113 -37t-131 -13q-170 0 -288 75.5t-173 195.5t-55 258v932h356v-967q0 -67 50 -109q27 -21 56 -32.5t62 -11.5q65 0 116 43q48 39 48 112v965h356v-313l33 376h267l-99 -467h-201z" />
    <glyph glyph-name="section" unicode="&#xa7;" horiz-adv-x="1368" 
d="M559 0v348q99 0 181.5 48t129 130t46.5 179q0 194 -123.5 290.5t-317.5 96.5v-156h185v-348h-185v-588h-354v588h-88v348h88v500h358q250 0 431.5 -96.5t275.5 -262t94 -368.5q0 -155 -53.5 -285.5t-151 -225t-230.5 -146.5q-67 -26 -137 -39t-149 -13z" />
    <glyph glyph-name="dieresis" unicode="&#xa8;" 
d="M1129 957v-957h-357v500h-223v324h223v129q0 34 -4 57t-16 46q-20 41 -52.5 61t-70.5 20q-150 0 -150 -209v-928h-354v953q0 123 41.5 222.5t113 166t163 101t186.5 34.5q97 0 185.5 -33.5t159.5 -99t113 -164.5t42 -223zM257 1845h156q10 -64 62 -98.5t147 -34.5
q193 0 215 133h160q0 -82 -41 -152.5t-127 -113.5q-43 -21 -96 -33t-115 -12q-51 0 -98.5 9t-89.5 26q-82 35 -127.5 104.5t-45.5 171.5z" />
    <glyph glyph-name="copyright" unicode="&#xa9;" 
d="M1129 957v-957h-357v500h-223v324h223v129q0 34 -4 57t-16 46q-20 41 -52.5 61t-70.5 20q-150 0 -150 -209v-928h-354v953q0 123 41.5 222.5t113 166t163 101t186.5 34.5q97 0 185.5 -33.5t159.5 -99t113 -164.5t42 -223zM797 1833l252 -305h-309l-111 156l-117 -156
h-299l248 305h336z" />
    <glyph glyph-name="ordfeminine" unicode="&#xaa;" horiz-adv-x="1024" 
d="M928 1436v-332q-168 0 -253.5 -18t-132.5 -65t-93 -148h479v-314h-479q45 -100 92.5 -146t133.5 -63.5t253 -17.5v-332h-231q-113 0 -226.5 50t-201.5 143q-45 47 -81 102t-63.5 122t-42 138.5t-14.5 149.5q0 139 44.5 272t127 236t196 163t244.5 60h248zM785 1833
l252 -305h-310l-110 156l-117 -156h-299l248 305h336z" />
    <glyph glyph-name="guillemotleft" unicode="&#xab;" horiz-adv-x="1592" 
d="M797 1096q-108 0 -194 -55q-80 -51 -124 -132q-22 -42 -34.5 -84t-12.5 -85q0 -107 41.5 -197.5t126.5 -146.5t197 -56q80 0 149 33q34 16 63.5 38.5t54.5 50.5q50 56 77 125t27 140q0 92 -50.5 178t-136 138.5t-184.5 52.5zM797 1460q155 0 286 -59q66 -30 124.5 -70.5
t107.5 -91.5q98 -103 153 -230q29 -66 44.5 -130.5t15.5 -130.5q0 -142 -51.5 -281.5t-146 -250t-226.5 -176t-289 -65.5h-14q-113 0 -210.5 29t-185.5 86q-165 108 -251 288t-86 398q0 55 14 111t42 122q50 117 143.5 220t228.5 166q68 32 143.5 48.5t157.5 16.5zM965 1833
l252 -305h-309l-111 156l-117 -156h-299l248 305h336z" />
    <glyph glyph-name="logicalnot" unicode="&#xac;" horiz-adv-x="1592" 
d="M797 1096q-108 0 -194 -55q-80 -51 -124 -132q-22 -42 -34.5 -84t-12.5 -85q0 -107 41.5 -197.5t126.5 -146.5t197 -56q80 0 149 33q34 16 63.5 38.5t54.5 50.5q50 56 77 125t27 140q0 92 -50.5 178t-136 138.5t-184.5 52.5zM1326 1227l27 308h267l-90 -473l-88 2l26 -55
q29 -66 44.5 -130.5t15.5 -130.5q0 -142 -51.5 -281.5t-146 -250t-226.5 -176t-289 -65.5h-14q-113 0 -210.5 29t-185.5 86q-165 108 -251 288t-86 398q0 55 14 111t42 122q50 117 143.5 220t228.5 166q68 32 143.5 48.5t157.5 16.5q155 0 286 -59q66 -30 124.5 -70.5
t107.5 -91.5z" />
    <glyph glyph-name="minus" unicode="&#xad;" horiz-adv-x="1368" 
d="M1149 1032v-532q0 -93 -28 -182.5t-89.5 -166t-166.5 -126.5q-52 -24 -113 -37t-131 -13q-170 0 -288 75.5t-173 195.5t-55 258v932h356v-967q0 -67 50 -109q27 -21 56 -32.5t62 -11.5q65 0 116 43q48 39 48 112v965h356v-313l33 376h267l-99 -467h-201z" />
    <glyph glyph-name="registered" unicode="&#xae;" horiz-adv-x="1368" 
d="M559 0v348q99 0 181.5 48t129 130t46.5 179q0 194 -123.5 290.5t-317.5 96.5v-156h185v-348h-185v-588h-354v588h-88v348h88v500h358q250 0 431.5 -96.5t275.5 -262t94 -368.5q0 -155 -53.5 -285.5t-151 -225t-230.5 -146.5q-67 -26 -137 -39t-149 -13z" />
    <glyph glyph-name="mu" unicode="&#xb5;" 
d="M1129 957v-957h-357v500h-223v324h223v129q0 34 -4 57t-16 46q-20 41 -52.5 61t-70.5 20q-150 0 -150 -209v-928h-354v953q0 123 41.5 222.5t113 166t163 101t186.5 34.5q97 0 185.5 -33.5t159.5 -99t113 -164.5t42 -223zM637 1833l203 -301h-281l-350 301h428z" />
    <glyph glyph-name="paragraph" unicode="&#xb6;" 
d="M1129 957v-957h-357v500h-223v324h223v129q0 34 -4 57t-16 46q-20 41 -52.5 61t-70.5 20q-150 0 -150 -209v-928h-354v953q0 123 41.5 222.5t113 166t163 101t186.5 34.5q97 0 185.5 -33.5t159.5 -99t113 -164.5t42 -223zM524 1830l-166 48q17 59 54 98.5t84.5 57.5
t98.5 18q64 0 118.5 -28t88.5 -81.5t34 -116.5q0 -51 -20.5 -95.5t-58.5 -76t-82 -40.5v-61l-169 -2l5 206l32 -5q44 0 76.5 19.5t32.5 54.5q0 27 -17 46t-46 19q-27 0 -44.5 -15.5t-20.5 -45.5z" />
    <glyph glyph-name="periodcentered" unicode="&#xb7;" 
d="M1129 957v-957h-357v500h-223v324h223v129q0 34 -4 57t-16 46q-20 41 -52.5 61t-70.5 20q-150 0 -150 -209v-928h-354v953q0 123 41.5 222.5t113 166t163 101t186.5 34.5q97 0 185.5 -33.5t159.5 -99t113 -164.5t42 -223zM1028 1813q0 -69 -23 -121t-63 -86.5t-85 -52
t-97 -17.5q-37 5 -51.5 8t-48.5 13q-14 3 -58 21l-72 26q-30 8 -55 8q-70 0 -88 -84h-159q21 137 87 211t169 74q46 0 73 -10q31 -9 55.5 -18.5t49.5 -19.5q79 -28 114 -32q34 3 54 20q20 19 35 60h163z" />
    <glyph glyph-name="cedilla" unicode="&#xb8;" 
d="M1129 957v-957h-357v500h-223v324h223v129q0 34 -4 57t-16 46q-20 41 -52.5 61t-70.5 20q-150 0 -150 -209v-928h-354v953q0 123 41.5 222.5t113 166t163 101t186.5 34.5q97 0 185.5 -33.5t159.5 -99t113 -164.5t42 -223zM682 1859h385l-285 -309h-285z" />
    <glyph glyph-name="onesuperior" unicode="&#xb9;" 
d="M1129 957v-957h-357v500h-223v324h223v129q0 34 -4 57t-16 46q-20 41 -52.5 61t-70.5 20q-150 0 -150 -209v-928h-354v953q0 123 41.5 222.5t113 166t163 101t186.5 34.5q97 0 185.5 -33.5t159.5 -99t113 -164.5t42 -223zM623 -97q71 0 118 -53q26 -28 38.5 -54.5
t12.5 -59.5q0 -78 -51.5 -127.5t-126.5 -49.5q-64 0 -114 49.5t-50 126.5q0 64 47 116t126 52z" />
    <glyph glyph-name="guillemotright" unicode="&#xbb;" 
d="M1129 957v-957h-357v500h-223v324h223v129q0 34 -4 57t-16 46q-20 41 -52.5 61t-70.5 20q-150 0 -150 -209v-928h-354v953q0 123 41.5 222.5t113 166t163 101t186.5 34.5q97 0 185.5 -33.5t159.5 -99t113 -164.5t42 -223zM612 2240l203 -299h-281l-259 303zM257 1845h156
q10 -64 62 -98.5t147 -34.5q193 0 215 133h160q0 -82 -41 -152.5t-127 -113.5q-43 -21 -96 -33t-115 -12q-51 0 -98.5 9t-89.5 26q-82 35 -127.5 104.5t-45.5 171.5z" />
    <glyph glyph-name="onequarter" unicode="&#xbc;" 
d="M1129 957v-957h-357v500h-223v324h223v129q0 34 -4 57t-16 46q-20 41 -52.5 61t-70.5 20q-150 0 -150 -209v-928h-354v953q0 123 41.5 222.5t113 166t163 101t186.5 34.5q97 0 185.5 -33.5t159.5 -99t113 -164.5t42 -223zM535 2237l-166 48q17 59 54 98.5t84.5 57.5
t98.5 18q64 0 118.5 -28t88.5 -81.5t34 -116.5q0 -51 -20.5 -95.5t-58.5 -76t-82 -40.5v-61h-164v204l32 -5q44 0 76.5 19.5t32.5 54.5q0 27 -17 46t-46 19q-27 0 -44.5 -15.5t-20.5 -45.5zM257 1845h156q10 -64 62 -98.5t147 -34.5q193 0 215 133h160q0 -82 -41 -152.5
t-127 -113.5q-43 -21 -96 -33t-115 -12q-51 0 -98.5 9t-89.5 26q-82 35 -127.5 104.5t-45.5 171.5z" />
    <glyph glyph-name="onehalf" unicode="&#xbd;" 
d="M1129 957v-957h-357v500h-223v324h223v129q0 34 -4 57t-16 46q-20 41 -52.5 61t-70.5 20q-150 0 -150 -209v-928h-354v953q0 123 41.5 222.5t113 166t163 101t186.5 34.5q97 0 185.5 -33.5t159.5 -99t113 -164.5t42 -223zM1047 2076q-43 -60 -85 -93t-89 -33
q-17 0 -34 3.5t-33.5 10t-27.5 11.5q-26 11 -55 26q-10 5 -46 21q-19 8 -38 17q-39 13 -74 13q-91 0 -129 -108l-53 141q69 123 173 123q37 0 74 -12t88 -36l80 -35q23 -8 35.5 -11t31.5 -3q38 0 68.5 24t62.5 78zM257 1845h156q10 -64 62 -98.5t147 -34.5q193 0 215 133
h160q0 -82 -41 -152.5t-127 -113.5q-43 -21 -96 -33t-115 -12q-51 0 -98.5 9t-89.5 26q-82 35 -127.5 104.5t-45.5 171.5z" />
    <glyph glyph-name="threequarters" unicode="&#xbe;" 
d="M1129 957v-957h-357v500h-223v324h223v129q0 34 -4 57t-16 46q-20 41 -52.5 61t-70.5 20q-150 0 -150 -209v-928h-354v953q0 123 41.5 222.5t113 166t163 101t186.5 34.5q97 0 185.5 -33.5t159.5 -99t113 -164.5t42 -223zM748 2255h385l-285 -309h-285zM257 1845h156
q10 -64 62 -98.5t147 -34.5q193 0 215 133h160q0 -82 -41 -152.5t-127 -113.5q-43 -21 -96 -33t-115 -12q-51 0 -98.5 9t-89.5 26q-82 35 -127.5 104.5t-45.5 171.5z" />
    <glyph glyph-name="AE" unicode="&#xc6;" 
d="M1129 957v-957h-357v500h-223v324h223v129q0 34 -4 57t-16 46q-20 41 -52.5 61t-70.5 20q-150 0 -150 -209v-928h-354v953q0 123 41.5 222.5t113 166t163 101t186.5 34.5q97 0 185.5 -33.5t159.5 -99t113 -164.5t42 -223zM600 -121q93 0 153 -60q31 -32 46.5 -68.5
t15.5 -82.5q0 -47 -25 -95.5t-73.5 -81.5t-112.5 -33q-91 0 -150 68t-59 150q0 74 60.5 138.5t144.5 64.5zM257 1845h156q10 -64 62 -98.5t147 -34.5q193 0 215 133h160q0 -82 -41 -152.5t-127 -113.5q-43 -21 -96 -33t-115 -12q-51 0 -98.5 9t-89.5 26q-82 35 -127.5 104.5
t-45.5 171.5z" />
    <glyph glyph-name="Ccedilla" unicode="&#xc7;" 
d="M1129 957v-957h-357v500h-223v324h223v129q0 34 -4 57t-16 46q-20 41 -52.5 61t-70.5 20q-150 0 -150 -209v-928h-354v953q0 123 41.5 222.5t113 166t163 101t186.5 34.5q97 0 185.5 -33.5t159.5 -99t113 -164.5t42 -223zM797 1833l252 -305h-309l-111 156l-117 -156
h-299l248 305h336zM1074 2086l203 -299h-281l-259 303z" />
    <glyph glyph-name="Egrave" unicode="&#xc8;" 
d="M1129 957v-957h-357v500h-223v324h223v129q0 34 -4 57t-16 46q-20 41 -52.5 61t-70.5 20q-150 0 -150 -209v-928h-354v953q0 123 41.5 222.5t113 166t163 101t186.5 34.5q97 0 185.5 -33.5t159.5 -99t113 -164.5t42 -223zM797 1833l252 -305h-309l-111 156l-117 -156
h-299l248 305h336zM953 2028l-166 48q17 59 54 98.5t84.5 57.5t98.5 18q64 0 118.5 -28t88.5 -81.5t34 -116.5q0 -51 -20.5 -95.5t-58.5 -76t-82 -40.5v-61h-164v204l32 -5q44 0 76.5 19.5t32.5 54.5q0 27 -17 46t-46 19q-27 0 -44.5 -15.5t-20.5 -45.5z" />
    <glyph glyph-name="Eacute" unicode="&#xc9;" 
d="M1129 957v-957h-357v500h-223v324h223v129q0 34 -4 57t-16 46q-20 41 -52.5 61t-70.5 20q-150 0 -150 -209v-928h-354v953q0 123 41.5 222.5t113 166t163 101t186.5 34.5q97 0 185.5 -33.5t159.5 -99t113 -164.5t42 -223zM797 1833l252 -305h-309l-111 156l-117 -156
h-299l248 305h336zM1047 2076q-43 -60 -85 -93t-89 -33q-17 0 -34 3.5t-33.5 10t-27.5 11.5q-26 11 -55 26q-10 5 -46 21q-19 8 -38 17q-39 13 -74 13q-91 0 -129 -108l-53 141q69 123 173 123q37 0 74 -12t88 -36l80 -35q23 -8 35.5 -11t31.5 -3q38 0 68.5 24t62.5 78z" />
    <glyph glyph-name="Ecircumflex" unicode="&#xca;" 
d="M1129 957v-957h-357v500h-223v324h223v129q0 34 -4 57t-16 46q-20 41 -52.5 61t-70.5 20q-150 0 -150 -209v-928h-354v953q0 123 41.5 222.5t113 166t163 101t186.5 34.5q97 0 185.5 -33.5t159.5 -99t113 -164.5t42 -223zM797 1833l252 -305h-309l-111 156l-117 -156
h-299l248 305h336zM1122 2057h385l-285 -309h-285z" />
    <glyph glyph-name="Edieresis" unicode="&#xcb;" 
d="M1129 957v-957h-357v500h-223v324h223v129q0 34 -4 57t-16 46q-20 41 -52.5 61t-70.5 20q-150 0 -150 -209v-928h-354v953q0 123 41.5 222.5t113 166t163 101t186.5 34.5q97 0 185.5 -33.5t159.5 -99t113 -164.5t42 -223zM797 1833l252 -305h-309l-111 156l-117 -156
h-299l248 305h336zM600 -121q93 0 153 -60q31 -32 46.5 -68.5t15.5 -82.5q0 -47 -25 -95.5t-73.5 -81.5t-112.5 -33q-91 0 -150 68t-59 150q0 74 60.5 138.5t144.5 64.5z" />
    <glyph glyph-name="Igrave" unicode="&#xcc;" horiz-adv-x="1024" 
d="M928 1436v-332q-168 0 -253.5 -18t-132.5 -65t-93 -148h479v-314h-479q45 -100 92.5 -146t133.5 -63.5t253 -17.5v-332h-231q-113 0 -226.5 50t-201.5 143q-45 47 -81 102t-63.5 122t-42 138.5t-14.5 149.5q0 139 44.5 272t127 236t196 163t244.5 60h248zM633 1825
l203 -301h-281l-350 301h428z" />
    <glyph glyph-name="Icircumflex" unicode="&#xce;" horiz-adv-x="1024" 
d="M928 1436v-332q-168 0 -253.5 -18t-132.5 -65t-93 -148h479v-314h-479q45 -100 92.5 -146t133.5 -63.5t253 -17.5v-332h-231q-113 0 -226.5 50t-201.5 143q-45 47 -81 102t-63.5 122t-42 138.5t-14.5 149.5q0 139 44.5 272t127 236t196 163t244.5 60h248zM656 1830
l-166 48q17 59 54 98.5t84.5 57.5t98.5 18q64 0 118.5 -28t88.5 -81.5t34 -116.5q0 -51 -20.5 -95.5t-58.5 -76t-82 -40.5v-61h-164v204l32 -5q44 0 76.5 19.5t32.5 54.5q0 27 -17 46t-46 19q-27 0 -44.5 -15.5t-20.5 -45.5z" />
    <glyph glyph-name="Idieresis" unicode="&#xcf;" horiz-adv-x="1024" 
d="M928 1436v-332q-168 0 -253.5 -18t-132.5 -65t-93 -148h479v-314h-479q45 -100 92.5 -146t133.5 -63.5t253 -17.5v-332h-231q-113 0 -226.5 50t-201.5 143q-45 47 -81 102t-63.5 122t-42 138.5t-14.5 149.5q0 139 44.5 272t127 236t196 163t244.5 60h248zM1014 1669
q-43 -60 -85 -93t-89 -33q-17 0 -34 3.5t-33.5 10t-27.5 11.5q-26 11 -55 26q-10 5 -46 21q-19 8 -38 17q-39 13 -74 13q-91 0 -129 -108l-53 141q69 123 173 123q37 0 74 -12t88 -36l80 -35q23 -8 35.5 -11t31.5 -3q38 0 68.5 24t62.5 78z" />
    <glyph glyph-name="Eth" unicode="&#xd0;" horiz-adv-x="1024" 
d="M928 1436v-332q-168 0 -253.5 -18t-132.5 -65t-93 -148h479v-314h-479q45 -100 92.5 -146t133.5 -63.5t253 -17.5v-332h-231q-113 0 -226.5 50t-201.5 143q-45 47 -81 102t-63.5 122t-42 138.5t-14.5 149.5q0 139 44.5 272t127 236t196 163t244.5 60h248zM617 1833h424
l-349 -305h-284z" />
    <glyph glyph-name="Ntilde" unicode="&#xd1;" horiz-adv-x="1024" 
d="M928 1436v-332q-168 0 -253.5 -18t-132.5 -65t-93 -148h479v-314h-479q45 -100 92.5 -146t133.5 -63.5t253 -17.5v-332h-231q-113 0 -226.5 50t-201.5 143q-45 47 -81 102t-63.5 122t-42 138.5t-14.5 149.5q0 139 44.5 272t127 236t196 163t244.5 60h248zM677 -121
q93 0 153 -60q31 -32 46.5 -68.5t15.5 -82.5q0 -47 -25 -95.5t-73.5 -81.5t-112.5 -33q-91 0 -150 68t-59 150q0 74 60.5 138.5t144.5 64.5z" />
    <glyph glyph-name="Ograve" unicode="&#xd2;" horiz-adv-x="1024" 
d="M928 1436v-332q-168 0 -253.5 -18t-132.5 -65t-93 -148h479v-314h-479q45 -100 92.5 -146t133.5 -63.5t253 -17.5v-332h-231q-113 0 -226.5 50t-201.5 143q-45 47 -81 102t-63.5 122t-42 138.5t-14.5 149.5q0 139 44.5 272t127 236t196 163t244.5 60h248zM785 1833
l252 -305h-310l-110 156l-117 -156h-299l248 305h336zM1074 2020l203 -299h-281l-259 303z" />
    <glyph glyph-name="Oacute" unicode="&#xd3;" horiz-adv-x="1024" 
d="M928 1436v-332q-168 0 -253.5 -18t-132.5 -65t-93 -148h479v-314h-479q45 -100 92.5 -146t133.5 -63.5t253 -17.5v-332h-231q-113 0 -226.5 50t-201.5 143q-45 47 -81 102t-63.5 122t-42 138.5t-14.5 149.5q0 139 44.5 272t127 236t196 163t244.5 60h248zM785 1833
l252 -305h-310l-110 156l-117 -156h-299l248 305h336zM931 2028l-166 48q17 59 54 98.5t84.5 57.5t98.5 18q64 0 118.5 -28t88.5 -81.5t34 -116.5q0 -51 -20.5 -95.5t-58.5 -76t-82 -40.5v-61l-169 -2l5 206l32 -5q44 0 76.5 19.5t32.5 54.5q0 27 -17 46t-46 19
q-27 0 -44.5 -15.5t-20.5 -45.5z" />
    <glyph glyph-name="Ocircumflex" unicode="&#xd4;" horiz-adv-x="1024" 
d="M928 1436v-332q-168 0 -253.5 -18t-132.5 -65t-93 -148h479v-314h-479q45 -100 92.5 -146t133.5 -63.5t253 -17.5v-332h-231q-113 0 -226.5 50t-201.5 143q-45 47 -81 102t-63.5 122t-42 138.5t-14.5 149.5q0 139 44.5 272t127 236t196 163t244.5 60h248zM785 1833
l252 -305h-310l-110 156l-117 -156h-299l248 305h336zM1047 2076q-43 -60 -85 -93t-89 -33q-17 0 -34 3.5t-33.5 10t-27.5 11.5q-26 11 -55 26q-10 5 -46 21q-19 8 -38 17q-39 13 -74 13q-91 0 -129 -108l-53 141q69 123 173 123q37 0 74 -12t88 -36l80 -35q23 -8 35.5 -11
t31.5 -3q38 0 68.5 24t62.5 78z" />
    <glyph glyph-name="Otilde" unicode="&#xd5;" horiz-adv-x="1024" 
d="M928 1436v-332q-168 0 -253.5 -18t-132.5 -65t-93 -148h479v-314h-479q45 -100 92.5 -146t133.5 -63.5t253 -17.5v-332h-231q-113 0 -226.5 50t-201.5 143q-45 47 -81 102t-63.5 122t-42 138.5t-14.5 149.5q0 139 44.5 272t127 236t196 163t244.5 60h248zM785 1833
l252 -305h-310l-110 156l-117 -156h-299l248 305h336zM1139 2064l368 4l-292 -309h-285z" />
    <glyph glyph-name="Odieresis" unicode="&#xd6;" horiz-adv-x="1024" 
d="M928 1436v-332q-168 0 -253.5 -18t-132.5 -65t-93 -148h479v-314h-479q45 -100 92.5 -146t133.5 -63.5t253 -17.5v-332h-231q-113 0 -226.5 50t-201.5 143q-45 47 -81 102t-63.5 122t-42 138.5t-14.5 149.5q0 139 44.5 272t127 236t196 163t244.5 60h248zM785 1833
l252 -305h-310l-110 156l-117 -156h-299l248 305h336zM699 -121q93 0 153 -60q31 -32 46.5 -68.5t15.5 -82.5q0 -47 -25 -95.5t-73.5 -81.5t-112.5 -33q-91 0 -150 68t-59 150q0 74 60.5 138.5t144.5 64.5z" />
    <glyph glyph-name="multiply" unicode="&#xd7;" horiz-adv-x="568" 
d="M465 1436v-1436h-356v1436h356zM289 1833l203 -301h-279l-353 301h429z" />
    <glyph glyph-name="Oslash" unicode="&#xd8;" horiz-adv-x="568" 
d="M465 1436v-1436h-356v1436h356zM238 1808l-166 48q17 59 54 98.5t84.5 57.5t98.5 18q64 0 118.5 -28t88.5 -81.5t34 -116.5q0 -51 -20.5 -95.5t-58.5 -76t-82 -40.5v-61h-164v204l32 -5q44 0 76.5 19.5t32.5 54.5q0 27 -17 46t-46 19q-27 0 -44.5 -15.5t-20.5 -45.5z" />
    <glyph glyph-name="Udieresis" unicode="&#xdc;" horiz-adv-x="568" 
d="M465 1436v-1436h-356v1436h356zM618 1680q-43 -60 -85 -93t-89 -33q-17 0 -34 3.5t-33.5 10t-27.5 11.5q-26 11 -55 26q-10 5 -46 21q-19 8 -38 17q-39 13 -74 13q-91 0 -129 -108l-53 141q69 123 173 123q37 0 74 -12t88 -36l80 -35q23 -8 35.5 -11t31.5 -3
q38 0 68.5 24t62.5 78z" />
    <glyph glyph-name="Yacute" unicode="&#xdd;" horiz-adv-x="568" 
d="M465 1436v-1436h-356v1436h356zM281 1833l368 4l-292 -309h-285z" />
    <glyph glyph-name="Thorn" unicode="&#xde;" horiz-adv-x="568" 
d="M465 1436v-1436h-356v1436h356zM270 -99q93 0 153 -60q31 -32 46.5 -68.5t15.5 -82.5q0 -47 -25 -95.5t-73.5 -81.5t-112.5 -33q-91 0 -150 68t-59 150q0 74 60.5 138.5t144.5 64.5zM303 1947q93 0 153 -60q31 -32 46.5 -68.5t15.5 -82.5q0 -47 -25 -95.5t-73.5 -81.5
t-112.5 -33q-91 0 -150 68t-59 150q0 74 60.5 138.5t144.5 64.5z" />
    <glyph glyph-name="germandbls" unicode="&#xdf;" horiz-adv-x="1592" 
d="M797 1096q-108 0 -194 -55q-80 -51 -124 -132q-22 -42 -34.5 -84t-12.5 -85q0 -107 41.5 -197.5t126.5 -146.5t197 -56q80 0 149 33q34 16 63.5 38.5t54.5 50.5q50 56 77 125t27 140q0 92 -50.5 178t-136 138.5t-184.5 52.5zM797 1460q155 0 286 -59q66 -30 124.5 -70.5
t107.5 -91.5q98 -103 153 -230q29 -66 44.5 -130.5t15.5 -130.5q0 -142 -51.5 -281.5t-146 -250t-226.5 -176t-289 -65.5h-14q-113 0 -210.5 29t-185.5 86q-165 108 -251 288t-86 398q0 55 14 111t42 122q50 117 143.5 220t228.5 166q68 32 143.5 48.5t157.5 16.5zM809 1833
l203 -301h-281l-350 301h428z" />
    <glyph glyph-name="aacute" unicode="&#xe1;" horiz-adv-x="1592" 
d="M797 1096q-108 0 -194 -55q-80 -51 -124 -132q-22 -42 -34.5 -84t-12.5 -85q0 -107 41.5 -197.5t126.5 -146.5t197 -56q80 0 149 33q34 16 63.5 38.5t54.5 50.5q50 56 77 125t27 140q0 92 -50.5 178t-136 138.5t-184.5 52.5zM797 1460q155 0 286 -59q66 -30 124.5 -70.5
t107.5 -91.5q98 -103 153 -230q29 -66 44.5 -130.5t15.5 -130.5q0 -142 -51.5 -281.5t-146 -250t-226.5 -176t-289 -65.5h-14q-113 0 -210.5 29t-185.5 86q-165 108 -251 288t-86 398q0 55 14 111t42 122q50 117 143.5 220t228.5 166q68 32 143.5 48.5t157.5 16.5zM733 1830
l-166 48q17 59 54 98.5t84.5 57.5t98.5 18q64 0 118.5 -28t88.5 -81.5t34 -116.5q0 -51 -20.5 -95.5t-58.5 -76t-82 -40.5v-61h-164v204l32 -5q44 0 76.5 19.5t32.5 54.5q0 27 -17 46t-46 19q-27 0 -44.5 -15.5t-20.5 -45.5z" />
    <glyph glyph-name="acircumflex" unicode="&#xe2;" horiz-adv-x="1592" 
d="M797 1096q-108 0 -194 -55q-80 -51 -124 -132q-22 -42 -34.5 -84t-12.5 -85q0 -107 41.5 -197.5t126.5 -146.5t197 -56q80 0 149 33q34 16 63.5 38.5t54.5 50.5q50 56 77 125t27 140q0 92 -50.5 178t-136 138.5t-184.5 52.5zM797 1460q155 0 286 -59q66 -30 124.5 -70.5
t107.5 -91.5q98 -103 153 -230q29 -66 44.5 -130.5t15.5 -130.5q0 -142 -51.5 -281.5t-146 -250t-226.5 -176t-289 -65.5h-14q-113 0 -210.5 29t-185.5 86q-165 108 -251 288t-86 398q0 55 14 111t42 122q50 117 143.5 220t228.5 166q68 32 143.5 48.5t157.5 16.5z
M1196 1817q0 -69 -23 -121t-63 -86.5t-85 -52t-97 -17.5q-37 5 -51.5 8t-48.5 13q-14 3 -58 21l-72 26q-30 8 -55 8q-70 0 -88 -84h-159q21 137 87 211t169 74q45 0 74 -10l106 -38q77 -28 112 -32q33 3 53 21t35 59h164z" />
    <glyph glyph-name="atilde" unicode="&#xe3;" horiz-adv-x="1592" 
d="M797 1096q-108 0 -194 -55q-80 -51 -124 -132q-22 -42 -34.5 -84t-12.5 -85q0 -107 41.5 -197.5t126.5 -146.5t197 -56q80 0 149 33q34 16 63.5 38.5t54.5 50.5q50 56 77 125t27 140q0 92 -50.5 178t-136 138.5t-184.5 52.5zM797 1460q155 0 286 -59q66 -30 124.5 -70.5
t107.5 -91.5q98 -103 153 -230q29 -66 44.5 -130.5t15.5 -130.5q0 -142 -51.5 -281.5t-146 -250t-226.5 -176t-289 -65.5h-14q-113 0 -210.5 29t-185.5 86q-165 108 -251 288t-86 398q0 55 14 111t42 122q50 117 143.5 220t228.5 166q68 32 143.5 48.5t157.5 16.5zM797 1833
h424l-348 -305h-285z" />
    <glyph glyph-name="adieresis" unicode="&#xe4;" horiz-adv-x="1592" 
d="M797 1096q-108 0 -194 -55q-80 -51 -124 -132q-22 -42 -34.5 -84t-12.5 -85q0 -107 41.5 -197.5t126.5 -146.5t197 -56q80 0 149 33q34 16 63.5 38.5t54.5 50.5q50 56 77 125t27 140q0 92 -50.5 178t-136 138.5t-184.5 52.5zM797 1460q155 0 286 -59q66 -30 124.5 -70.5
t107.5 -91.5q98 -103 153 -230q29 -66 44.5 -130.5t15.5 -130.5q0 -142 -51.5 -281.5t-146 -250t-226.5 -176t-289 -65.5h-14q-113 0 -210.5 29t-185.5 86q-165 108 -251 288t-86 398q0 55 14 111t42 122q50 117 143.5 220t228.5 166q68 32 143.5 48.5t157.5 16.5zM798 -121
q93 0 153 -60q31 -32 46.5 -68.5t15.5 -82.5q0 -47 -25 -95.5t-73.5 -81.5t-112.5 -33q-91 0 -150 68t-59 150q0 74 60.5 138.5t144.5 64.5z" />
    <glyph glyph-name="aring" unicode="&#xe5;" horiz-adv-x="1592" 
d="M797 1096q-108 0 -194 -55q-80 -51 -124 -132q-22 -42 -34.5 -84t-12.5 -85q0 -107 41.5 -197.5t126.5 -146.5t197 -56q80 0 149 33q34 16 63.5 38.5t54.5 50.5q50 56 77 125t27 140q0 92 -50.5 178t-136 138.5t-184.5 52.5zM797 1460q155 0 286 -59q66 -30 124.5 -70.5
t107.5 -91.5q98 -103 153 -230q29 -66 44.5 -130.5t15.5 -130.5q0 -142 -51.5 -281.5t-146 -250t-226.5 -176t-289 -65.5h-14q-113 0 -210.5 29t-185.5 86q-165 108 -251 288t-86 398q0 55 14 111t42 122q50 117 143.5 220t228.5 166q68 32 143.5 48.5t157.5 16.5zM965 1833
l252 -305h-309l-111 156l-117 -156h-299l248 305h336zM1250 2053l203 -299h-281l-259 303z" />
    <glyph glyph-name="ae" unicode="&#xe6;" horiz-adv-x="1592" 
d="M797 1096q-108 0 -194 -55q-80 -51 -124 -132q-22 -42 -34.5 -84t-12.5 -85q0 -107 41.5 -197.5t126.5 -146.5t197 -56q80 0 149 33q34 16 63.5 38.5t54.5 50.5q50 56 77 125t27 140q0 92 -50.5 178t-136 138.5t-184.5 52.5zM797 1460q155 0 286 -59q66 -30 124.5 -70.5
t107.5 -91.5q98 -103 153 -230q29 -66 44.5 -130.5t15.5 -130.5q0 -142 -51.5 -281.5t-146 -250t-226.5 -176t-289 -65.5h-14q-113 0 -210.5 29t-185.5 86q-165 108 -251 288t-86 398q0 55 14 111t42 122q50 117 143.5 220t228.5 166q68 32 143.5 48.5t157.5 16.5zM965 1833
l252 -305h-309l-111 156l-117 -156h-299l248 305h336zM1118 2028l-166 48q17 59 54 98.5t84.5 57.5t98.5 18q64 0 118.5 -28t88.5 -81.5t34 -116.5q0 -51 -20.5 -95.5t-58.5 -76t-82 -40.5v-61h-164v204l32 -5q44 0 76.5 19.5t32.5 54.5q0 27 -17 46t-46 19
q-27 0 -44.5 -15.5t-20.5 -45.5z" />
    <glyph glyph-name="ccedilla" unicode="&#xe7;" horiz-adv-x="1592" 
d="M797 1096q-108 0 -194 -55q-80 -51 -124 -132q-22 -42 -34.5 -84t-12.5 -85q0 -107 41.5 -197.5t126.5 -146.5t197 -56q80 0 149 33q34 16 63.5 38.5t54.5 50.5q50 56 77 125t27 140q0 92 -50.5 178t-136 138.5t-184.5 52.5zM797 1460q155 0 286 -59q66 -30 124.5 -70.5
t107.5 -91.5q98 -103 153 -230q29 -66 44.5 -130.5t15.5 -130.5q0 -142 -51.5 -281.5t-146 -250t-226.5 -176t-289 -65.5h-14q-113 0 -210.5 29t-185.5 86q-165 108 -251 288t-86 398q0 55 14 111t42 122q50 117 143.5 220t228.5 166q68 32 143.5 48.5t157.5 16.5zM965 1833
l252 -305h-309l-111 156l-117 -156h-299l248 305h336zM1223 2087q-43 -60 -85 -93t-89 -33q-17 0 -34 3.5t-33.5 10t-27.5 11.5q-26 11 -55 26q-10 5 -46 21q-19 8 -38 17q-39 13 -74 13q-91 0 -129 -108l-53 141q69 123 173 123q37 0 74 -12t88 -36l80 -35q23 -8 35.5 -11
t31.5 -3q38 0 68.5 24t62.5 78z" />
    <glyph glyph-name="egrave" unicode="&#xe8;" horiz-adv-x="1592" 
d="M797 1096q-108 0 -194 -55q-80 -51 -124 -132q-22 -42 -34.5 -84t-12.5 -85q0 -107 41.5 -197.5t126.5 -146.5t197 -56q80 0 149 33q34 16 63.5 38.5t54.5 50.5q50 56 77 125t27 140q0 92 -50.5 178t-136 138.5t-184.5 52.5zM797 1460q155 0 286 -59q66 -30 124.5 -70.5
t107.5 -91.5q98 -103 153 -230q29 -66 44.5 -130.5t15.5 -130.5q0 -142 -51.5 -281.5t-146 -250t-226.5 -176t-289 -65.5h-14q-113 0 -210.5 29t-185.5 86q-165 108 -251 288t-86 398q0 55 14 111t42 122q50 117 143.5 220t228.5 166q68 32 143.5 48.5t157.5 16.5zM965 1833
l252 -305h-309l-111 156l-117 -156h-299l248 305h336zM1298 2068h385l-285 -309h-285z" />
    <glyph glyph-name="eacute" unicode="&#xe9;" horiz-adv-x="1592" 
d="M797 1096q-108 0 -194 -55q-80 -51 -124 -132q-22 -42 -34.5 -84t-12.5 -85q0 -107 41.5 -197.5t126.5 -146.5t197 -56q80 0 149 33q34 16 63.5 38.5t54.5 50.5q50 56 77 125t27 140q0 92 -50.5 178t-136 138.5t-184.5 52.5zM797 1460q155 0 286 -59q66 -30 124.5 -70.5
t107.5 -91.5q98 -103 153 -230q29 -66 44.5 -130.5t15.5 -130.5q0 -142 -51.5 -281.5t-146 -250t-226.5 -176t-289 -65.5h-14q-113 0 -210.5 29t-185.5 86q-165 108 -251 288t-86 398q0 55 14 111t42 122q50 117 143.5 220t228.5 166q68 32 143.5 48.5t157.5 16.5zM965 1833
l252 -305h-309l-111 156l-117 -156h-299l248 305h336zM798 -121q93 0 153 -60q31 -32 46.5 -68.5t15.5 -82.5q0 -47 -25 -95.5t-73.5 -81.5t-112.5 -33q-91 0 -150 68t-59 150q0 74 60.5 138.5t144.5 64.5z" />
    <glyph glyph-name="ecircumflex" unicode="&#xea;" horiz-adv-x="1592" 
d="M797 1096q-108 0 -194 -55q-80 -51 -124 -132q-22 -42 -34.5 -84t-12.5 -85q0 -107 41.5 -197.5t126.5 -146.5t197 -56q80 0 149 33q34 16 63.5 38.5t54.5 50.5q50 56 77 125t27 140q0 92 -50.5 178t-136 138.5t-184.5 52.5zM1326 1227l27 308h267l-90 -473l-88 2l26 -55
q29 -66 44.5 -130.5t15.5 -130.5q0 -142 -51.5 -281.5t-146 -250t-226.5 -176t-289 -65.5h-14q-113 0 -210.5 29t-185.5 86q-165 108 -251 288t-86 398q0 55 14 111t42 122q50 117 143.5 220t228.5 166q68 32 143.5 48.5t157.5 16.5q155 0 286 -59q66 -30 124.5 -70.5
t107.5 -91.5zM865 1866l203 -299h-281l-259 303z" />
    <glyph glyph-name="edieresis" unicode="&#xeb;" horiz-adv-x="1592" 
d="M797 1096q-108 0 -194 -55q-80 -51 -124 -132q-22 -42 -34.5 -84t-12.5 -85q0 -107 41.5 -197.5t126.5 -146.5t197 -56q80 0 149 33q34 16 63.5 38.5t54.5 50.5q50 56 77 125t27 140q0 92 -50.5 178t-136 138.5t-184.5 52.5zM1326 1227l27 308h267l-90 -473l-88 2l26 -55
q29 -66 44.5 -130.5t15.5 -130.5q0 -142 -51.5 -281.5t-146 -250t-226.5 -176t-289 -65.5h-14q-113 0 -210.5 29t-185.5 86q-165 108 -251 288t-86 398q0 55 14 111t42 122q50 117 143.5 220t228.5 166q68 32 143.5 48.5t157.5 16.5q155 0 286 -59q66 -30 124.5 -70.5
t107.5 -91.5zM766 1830l-166 48q17 59 54 98.5t84.5 57.5t98.5 18q64 0 118.5 -28t88.5 -81.5t34 -116.5q0 -51 -20.5 -95.5t-58.5 -76t-82 -40.5v-61h-164v204l32 -5q44 0 76.5 19.5t32.5 54.5q0 27 -17 46t-46 19q-27 0 -44.5 -15.5t-20.5 -45.5z" />
    <glyph glyph-name="igrave" unicode="&#xec;" horiz-adv-x="1592" 
d="M797 1096q-108 0 -194 -55q-80 -51 -124 -132q-22 -42 -34.5 -84t-12.5 -85q0 -107 41.5 -197.5t126.5 -146.5t197 -56q80 0 149 33q34 16 63.5 38.5t54.5 50.5q50 56 77 125t27 140q0 92 -50.5 178t-136 138.5t-184.5 52.5zM1326 1227l27 308h267l-90 -473l-88 2l26 -55
q29 -66 44.5 -130.5t15.5 -130.5q0 -142 -51.5 -281.5t-146 -250t-226.5 -176t-289 -65.5h-14q-113 0 -210.5 29t-185.5 86q-165 108 -251 288t-86 398q0 55 14 111t42 122q50 117 143.5 220t228.5 166q68 32 143.5 48.5t157.5 16.5q155 0 286 -59q66 -30 124.5 -70.5
t107.5 -91.5zM1124 1669q-43 -60 -85 -93t-89 -33q-17 0 -34 3.5t-33.5 10t-27.5 11.5q-26 11 -55 26q-10 5 -46 21q-19 8 -38 17q-39 13 -74 13q-91 0 -129 -108l-53 141q69 123 173 123q37 0 74 -12t88 -36l80 -35q23 -8 35.5 -11t31.5 -3q38 0 68.5 24t62.5 78z" />
    <glyph glyph-name="iacute" unicode="&#xed;" horiz-adv-x="1592" 
d="M797 1096q-108 0 -194 -55q-80 -51 -124 -132q-22 -42 -34.5 -84t-12.5 -85q0 -107 41.5 -197.5t126.5 -146.5t197 -56q80 0 149 33q34 16 63.5 38.5t54.5 50.5q50 56 77 125t27 140q0 92 -50.5 178t-136 138.5t-184.5 52.5zM1326 1227l27 308h267l-90 -473l-88 2l26 -55
q29 -66 44.5 -130.5t15.5 -130.5q0 -142 -51.5 -281.5t-146 -250t-226.5 -176t-289 -65.5h-14q-113 0 -210.5 29t-185.5 86q-165 108 -251 288t-86 398q0 55 14 111t42 122q50 117 143.5 220t228.5 166q68 32 143.5 48.5t157.5 16.5q155 0 286 -59q66 -30 124.5 -70.5
t107.5 -91.5zM792 1870h385l-285 -309h-285z" />
    <glyph glyph-name="icircumflex" unicode="&#xee;" horiz-adv-x="1592" 
d="M797 1096q-108 0 -194 -55q-80 -51 -124 -132q-22 -42 -34.5 -84t-12.5 -85q0 -107 41.5 -197.5t126.5 -146.5t197 -56q80 0 149 33q34 16 63.5 38.5t54.5 50.5q50 56 77 125t27 140q0 92 -50.5 178t-136 138.5t-184.5 52.5zM1326 1227l27 308h267l-90 -473l-88 2l26 -55
q29 -66 44.5 -130.5t15.5 -130.5q0 -142 -51.5 -281.5t-146 -250t-226.5 -176t-289 -65.5h-14q-113 0 -210.5 29t-185.5 86q-165 108 -251 288t-86 398q0 55 14 111t42 122q50 117 143.5 220t228.5 166q68 32 143.5 48.5t157.5 16.5q155 0 286 -59q66 -30 124.5 -70.5
t107.5 -91.5zM787 -121q93 0 153 -60q31 -32 46.5 -68.5t15.5 -82.5q0 -47 -25 -95.5t-73.5 -81.5t-112.5 -33q-91 0 -150 68t-59 150q0 74 60.5 138.5t144.5 64.5z" />
    <glyph glyph-name="idieresis" unicode="&#xef;" 
d="M461 1436v-967q0 -67 50 -109q27 -21 56 -32.5t62 -11.5q65 0 116 43q48 39 48 112v965h356v-936q0 -93 -28 -182.5t-89.5 -166t-166.5 -126.5q-52 -24 -113 -37t-131 -13q-170 0 -288 75.5t-173 195.5t-55 258v932h356zM656 1833l203 -299h-281l-259 303z" />
    <glyph glyph-name="ntilde" unicode="&#xf1;" 
d="M461 1436v-967q0 -67 50 -109q27 -21 56 -32.5t62 -11.5q65 0 116 43q48 39 48 112v965h356v-936q0 -93 -28 -182.5t-89.5 -166t-166.5 -126.5q-52 -24 -113 -37t-131 -13q-170 0 -288 75.5t-173 195.5t-55 258v932h356zM579 1830l-166 48q17 59 54 98.5t84.5 57.5
t98.5 18q64 0 118.5 -28t88.5 -81.5t34 -116.5q0 -51 -20.5 -95.5t-58.5 -76t-82 -40.5v-61h-164v204l32 -5q44 0 76.5 19.5t32.5 54.5q0 27 -17 46t-46 19q-27 0 -44.5 -15.5t-20.5 -45.5z" />
    <glyph glyph-name="ograve" unicode="&#xf2;" 
d="M461 1436v-967q0 -67 50 -109q27 -21 56 -32.5t62 -11.5q65 0 116 43q48 39 48 112v965h356v-936q0 -93 -28 -182.5t-89.5 -166t-166.5 -126.5q-52 -24 -113 -37t-131 -13q-170 0 -288 75.5t-173 195.5t-55 258v932h356zM948 1691q-43 -60 -85 -93t-89 -33q-17 0 -34 3.5
t-33.5 10t-27.5 11.5q-26 11 -55 26q-10 5 -46 21q-19 8 -38 17q-39 13 -74 13q-91 0 -129 -108l-53 141q69 123 173 123q37 0 74 -12t88 -36l80 -35q23 -8 35.5 -11t31.5 -3q38 0 68.5 24t62.5 78z" />
    <glyph glyph-name="oacute" unicode="&#xf3;" 
d="M461 1436v-967q0 -67 50 -109q27 -21 56 -32.5t62 -11.5q65 0 116 43q48 39 48 112v965h356v-936q0 -93 -28 -182.5t-89.5 -166t-166.5 -126.5q-52 -24 -113 -37t-131 -13q-170 0 -288 75.5t-173 195.5t-55 258v932h356zM682 1859h385l-285 -309h-285z" />
    <glyph glyph-name="ocircumflex" unicode="&#xf4;" 
d="M461 1436v-967q0 -67 50 -109q27 -21 56 -32.5t62 -11.5q65 0 116 43q48 39 48 112v965h356v-936q0 -93 -28 -182.5t-89.5 -166t-166.5 -126.5q-52 -24 -113 -37t-131 -13q-170 0 -288 75.5t-173 195.5t-55 258v932h356zM600 -121q93 0 153 -60q31 -32 46.5 -68.5
t15.5 -82.5q0 -47 -25 -95.5t-73.5 -81.5t-112.5 -33q-91 0 -150 68t-59 150q0 74 60.5 138.5t144.5 64.5z" />
    <glyph glyph-name="otilde" unicode="&#xf5;" horiz-adv-x="1368" 
d="M1149 1032v-532q0 -93 -28 -182.5t-89.5 -166t-166.5 -126.5q-52 -24 -113 -37t-131 -13q-170 0 -288 75.5t-173 195.5t-55 258v932h356v-967q0 -67 50 -109q27 -21 56 -32.5t62 -11.5q65 0 116 43q48 39 48 112v965h356v-313l33 376h267l-99 -467h-201zM645 1833
l203 -299h-281l-259 303z" />
    <glyph glyph-name="odieresis" unicode="&#xf6;" horiz-adv-x="1368" 
d="M1149 1032v-532q0 -93 -28 -182.5t-89.5 -166t-166.5 -126.5q-52 -24 -113 -37t-131 -13q-170 0 -288 75.5t-173 195.5t-55 258v932h356v-967q0 -67 50 -109q27 -21 56 -32.5t62 -11.5q65 0 116 43q48 39 48 112v965h356v-313l33 376h267l-99 -467h-201zM557 1808
l-166 48q17 59 54 98.5t84.5 57.5t98.5 18q64 0 118.5 -28t88.5 -81.5t34 -116.5q0 -51 -20.5 -95.5t-58.5 -76t-82 -40.5v-61h-164v204l32 -5q44 0 76.5 19.5t32.5 54.5q0 27 -17 46t-46 19q-27 0 -44.5 -15.5t-20.5 -45.5z" />
    <glyph glyph-name="divide" unicode="&#xf7;" horiz-adv-x="1368" 
d="M1149 1032v-532q0 -93 -28 -182.5t-89.5 -166t-166.5 -126.5q-52 -24 -113 -37t-131 -13q-170 0 -288 75.5t-173 195.5t-55 258v932h356v-967q0 -67 50 -109q27 -21 56 -32.5t62 -11.5q65 0 116 43q48 39 48 112v965h356v-313l33 376h267l-99 -467h-201zM1003 1669
q-43 -60 -85 -93t-89 -33q-17 0 -34 3.5t-33.5 10t-27.5 11.5q-26 11 -55 26q-10 5 -46 21q-19 8 -38 17q-39 13 -74 13q-91 0 -129 -108l-53 141q69 123 173 123q37 0 74 -12t88 -36l80 -35q23 -8 35.5 -11t31.5 -3q38 0 68.5 24t62.5 78z" />
    <glyph glyph-name="oslash" unicode="&#xf8;" horiz-adv-x="1368" 
d="M1149 1032v-532q0 -93 -28 -182.5t-89.5 -166t-166.5 -126.5q-52 -24 -113 -37t-131 -13q-170 0 -288 75.5t-173 195.5t-55 258v932h356v-967q0 -67 50 -109q27 -21 56 -32.5t62 -11.5q65 0 116 43q48 39 48 112v965h356v-313l33 376h267l-99 -467h-201zM682 1859h385
l-285 -309h-285z" />
    <glyph glyph-name="ugrave" unicode="&#xf9;" horiz-adv-x="1368" 
d="M1149 1032v-532q0 -93 -28 -182.5t-89.5 -166t-166.5 -126.5q-52 -24 -113 -37t-131 -13q-170 0 -288 75.5t-173 195.5t-55 258v932h356v-967q0 -67 50 -109q27 -21 56 -32.5t62 -11.5q65 0 116 43q48 39 48 112v965h356v-313l33 376h267l-99 -467h-201zM600 -121
q93 0 153 -60q31 -32 46.5 -68.5t15.5 -82.5q0 -47 -25 -95.5t-73.5 -81.5t-112.5 -33q-91 0 -150 68t-59 150q0 74 60.5 138.5t144.5 64.5z" />
    <glyph glyph-name="uacute" unicode="&#xfa;" horiz-adv-x="1141" 
d="M461 1436v-453q0 -164 107 -164q53 0 82.5 35t29.5 129v453h357v-496q0 -176 -79.5 -281.5t-201.5 -146.5v-512h-356v512q-161 46 -228 164t-67 223v537h356zM623 1833l203 -299h-281l-259 303z" />
    <glyph glyph-name="ucircumflex" unicode="&#xfb;" horiz-adv-x="1141" 
d="M461 1436v-453q0 -164 107 -164q53 0 82.5 35t29.5 129v453h357v-496q0 -176 -79.5 -281.5t-201.5 -146.5v-512h-356v512q-161 46 -228 164t-67 223v537h356zM491 1819l-166 48q17 59 54 98.5t84.5 57.5t98.5 18q64 0 118.5 -28t88.5 -81.5t34 -116.5q0 -51 -20.5 -95.5
t-58.5 -76t-82 -40.5v-61h-164v204l32 -5q44 0 76.5 19.5t32.5 54.5q0 27 -17 46t-46 19q-27 0 -44.5 -15.5t-20.5 -45.5z" />
    <glyph glyph-name="udieresis" unicode="&#xfc;" horiz-adv-x="1141" 
d="M461 1436v-453q0 -164 107 -164q53 0 82.5 35t29.5 129v453h357v-496q0 -176 -79.5 -281.5t-201.5 -146.5v-512h-356v512q-161 46 -228 164t-67 223v537h356zM926 1669q-43 -60 -85 -93t-89 -33q-17 0 -34 3.5t-33.5 10t-27.5 11.5q-26 11 -55 26q-10 5 -46 21
q-19 8 -38 17q-39 13 -74 13q-91 0 -129 -108l-53 141q69 123 173 123q37 0 74 -12t88 -36l80 -35q23 -8 35.5 -11t31.5 -3q38 0 68.5 24t62.5 78z" />
    <glyph glyph-name="yacute" unicode="&#xfd;" horiz-adv-x="1141" 
d="M461 1436v-453q0 -164 107 -164q53 0 82.5 35t29.5 129v453h357v-496q0 -176 -79.5 -281.5t-201.5 -146.5v-512h-356v512q-161 46 -228 164t-67 223v537h356zM594 1870h385l-285 -309h-285z" />
    <glyph glyph-name="thorn" unicode="&#xfe;" horiz-adv-x="1141" 
d="M461 1436v-453q0 -164 107 -164q53 0 82.5 35t29.5 129v453h357v-496q0 -176 -79.5 -281.5t-201.5 -146.5v-512h-356v512q-161 46 -228 164t-67 223v537h356zM600 -121q93 0 153 -60q31 -32 46.5 -68.5t15.5 -82.5q0 -47 -25 -95.5t-73.5 -81.5t-112.5 -33q-91 0 -150 68
t-59 150q0 74 60.5 138.5t144.5 64.5z" />
    <glyph glyph-name="breve" unicode="&#x2d8;" horiz-adv-x="568" 
d="M-84 1460h156q10 -64 62 -98.5t147 -34.5q193 0 215 133h160q0 -82 -41 -152.5t-127 -113.5q-43 -21 -96 -33t-115 -12q-51 0 -98.5 9t-89.5 26q-82 35 -127.5 104.5t-45.5 171.5z" />
    <glyph glyph-name="dotlessi" unicode="&#x131;" horiz-adv-x="568" 
d="M449 996v-996h-328v996h328z" />
    <glyph glyph-name="ring" unicode="&#x2da;" horiz-adv-x="568" 
d="M289 1469q-42 0 -71.5 -28.5t-32.5 -63.5q0 -40 30 -72.5t74 -32.5q38 0 68 32t30 77q0 29 -31.5 58.5t-66.5 29.5zM277 1600q70 0 124 -30t83 -78q14 -22 23 -48.5t9 -50.5q0 -102 -58 -172q-30 -36 -71.5 -56t-93.5 -20q-98 0 -169 66q-36 35 -54.5 72.5t-18.5 80.5
l4 5l1 3q0 87 61.5 157.5t159.5 70.5z" />
    <glyph glyph-name="dotoperator" unicode="&#x2219;" 
d="M1129 957v-957h-357v500h-223v324h223v129q0 34 -4 57t-16 46q-20 41 -52.5 61t-70.5 20q-150 0 -150 -209v-928h-354v953q0 123 41.5 222.5t113 166t163 101t186.5 34.5q97 0 185.5 -33.5t159.5 -99t113 -164.5t42 -223zM1028 1813q0 -69 -23 -121t-63 -86.5t-85 -52
t-97 -17.5q-37 5 -51.5 8t-48.5 13q-14 3 -58 21l-72 26q-30 8 -55 8q-70 0 -88 -84h-159q21 137 87 211t169 74q46 0 73 -10q31 -9 55.5 -18.5t49.5 -19.5q79 -28 114 -32q34 3 54 20q20 19 35 60h163z" />
  </font>
</defs>
</svg>
